<svg xmlns="http://www.w3.org/2000/svg" width="20" height="20" viewBox="0 0 20 20" fill="none">
  <path d="M17.64 0H4.89998C4.25568 0.0190878 3.64528 0.29307 3.20281 0.761794C2.76033 1.23052 2.52194 1.85567 2.53998 2.5H2.35998C1.71577 2.51935 1.10553 2.79341 0.663109 3.26208C0.22069 3.73074 -0.0177898 4.35574 -2.31265e-05 5V13.5C-0.0180563 14.1443 0.220334 14.7695 0.662809 15.2382C1.10528 15.7069 1.71568 15.9809 2.35998 16H3.77498V19.5C3.77325 19.564 3.78414 19.6276 3.80703 19.6874C3.82991 19.7471 3.86435 19.8018 3.90837 19.8482C3.95239 19.8947 4.00513 19.932 4.06357 19.958C4.12201 19.984 4.18502 19.9983 4.24898 20C4.35137 20.0001 4.45064 19.9647 4.52998 19.9L9.43798 16H15.1C15.7443 15.9809 16.3547 15.7069 16.7971 15.2382C17.2396 14.7695 17.478 14.1443 17.46 13.5H17.639C18.2834 13.4809 18.8939 13.207 19.3365 12.7383C19.7791 12.2696 20.0177 11.6444 20 11V2.5C20.0177 1.85574 19.7793 1.23074 19.3368 0.762077C18.8944 0.293412 18.2842 0.0193496 17.64 0V0ZM16.161 13.5C16.1782 13.7994 16.0765 14.0935 15.878 14.3182C15.6795 14.543 15.4002 14.6802 15.101 14.7H9.43798C9.14454 14.7001 8.85976 14.7995 8.62998 14.982L5.07498 17.806V16C5.07498 15.6552 4.93801 15.3246 4.69422 15.0808C4.45042 14.837 4.11976 14.7 3.77498 14.7H2.35998C2.06075 14.6802 1.78147 14.543 1.58294 14.3182C1.38441 14.0935 1.28271 13.7994 1.29998 13.5V5C1.28297 4.70068 1.38477 4.40674 1.58324 4.18205C1.78172 3.95736 2.06085 3.82007 2.35998 3.8H15.1C15.3993 3.81981 15.6787 3.957 15.8774 4.18172C16.076 4.40644 16.178 4.70052 16.161 5V13.5ZM18.7 11C18.7172 11.2994 18.6155 11.5935 18.417 11.8182C18.2185 12.043 17.9392 12.1802 17.64 12.2H17.461V5C17.4787 4.35558 17.2401 3.73043 16.7975 3.26173C16.3549 2.79304 15.7444 2.51909 15.1 2.5H3.83898C3.82198 2.20052 3.92391 1.90644 4.1226 1.68172C4.32129 1.457 4.60067 1.31981 4.89998 1.3H17.64C17.9392 1.31981 18.2185 1.45703 18.417 1.68178C18.6155 1.90653 18.7172 2.20062 18.7 2.5V11Z" fill="white"></path>
  <path d="M13.5 8.148H4.99998C4.91462 8.148 4.83009 8.13119 4.75123 8.09852C4.67237 8.06586 4.60071 8.01798 4.54036 7.95762C4.48 7.89726 4.43212 7.82561 4.39945 7.74674C4.36679 7.66788 4.34998 7.58336 4.34998 7.498C4.34998 7.41264 4.36679 7.32812 4.39945 7.24926C4.43212 7.17039 4.48 7.09874 4.54036 7.03838C4.60071 6.97802 4.67237 6.93014 4.75123 6.89748C4.83009 6.86481 4.91462 6.848 4.99998 6.848H13.5C13.5853 6.848 13.6699 6.86481 13.7487 6.89748C13.8276 6.93014 13.8992 6.97802 13.9596 7.03838C14.02 7.09874 14.0678 7.17039 14.1005 7.24926C14.1332 7.32812 14.15 7.41264 14.15 7.498C14.15 7.58336 14.1332 7.66788 14.1005 7.74674C14.0678 7.82561 14.02 7.89726 13.9596 7.95762C13.8992 8.01798 13.8276 8.06586 13.7487 8.09852C13.6699 8.13119 13.5853 8.148 13.5 8.148Z" fill="white"></path>
  <path d="M11.5 11.648H4.99998C4.82758 11.648 4.66225 11.5795 4.54036 11.4576C4.41846 11.3357 4.34998 11.1704 4.34998 10.998C4.34998 10.8256 4.41846 10.6603 4.54036 10.5384C4.66225 10.4165 4.82758 10.348 4.99998 10.348H11.5C11.6724 10.348 11.8377 10.4165 11.9596 10.5384C12.0815 10.6603 12.15 10.8256 12.15 10.998C12.15 11.1704 12.0815 11.3357 11.9596 11.4576C11.8377 11.5795 11.6724 11.648 11.5 11.648Z" fill="white"></path>
</svg>
