<svg xmlns="http://www.w3.org/2000/svg" width="20" height="20" viewBox="0 0 20 20" fill="none">
    <path d="M13.125 14.375C12.9592 14.375 12.8003 14.4408 12.6831 14.5581C12.5658 14.6753 12.5 14.8342 12.5 15C12.5 15.1658 12.5658 15.3247 12.6831 15.4419C12.8003 15.5592 12.9592 15.625 13.125 15.625H14.375V16.875C14.375 17.0408 14.4408 17.1997 14.5581 17.3169C14.6753 17.4342 14.8342 17.5 15 17.5C15.1658 17.5 15.3247 17.4342 15.4419 17.3169C15.5592 17.1997 15.625 17.0408 15.625 16.875V15.625H16.875C17.0408 15.625 17.1997 15.5592 17.3169 15.4419C17.4342 15.3247 17.5 15.1658 17.5 15C17.5 14.8342 17.4342 14.6753 17.3169 14.5581C17.1997 14.4408 17.0408 14.375 16.875 14.375H15.625V13.125C15.625 12.9592 15.5592 12.8003 15.4419 12.6831C15.3247 12.5658 15.1658 12.5 15 12.5C14.8342 12.5 14.6753 12.5658 14.5581 12.6831C14.4408 12.8003 14.375 12.9592 14.375 13.125V14.375H13.125Z" fill="white"></path>
    <path fill-rule="evenodd" clip-rule="evenodd" d="M10 15C10 14.0111 10.2932 13.0444 10.8427 12.2222C11.3921 11.3999 12.173 10.759 13.0866 10.3806C14.0002 10.0022 15.0055 9.90315 15.9755 10.0961C16.9454 10.289 17.8363 10.7652 18.5355 11.4645C19.2348 12.1637 19.711 13.0546 19.9039 14.0246C20.0969 14.9945 19.9978 15.9998 19.6194 16.9134C19.241 17.8271 18.6001 18.6079 17.7779 19.1574C16.9556 19.7068 15.9889 20 15 20C13.6739 20 12.4021 19.4732 11.4645 18.5355C10.5268 17.5979 10 16.3261 10 15ZM15 18.75C14.2583 18.75 13.5333 18.5301 12.9166 18.118C12.2999 17.706 11.8193 17.1203 11.5355 16.4351C11.2516 15.7498 11.1774 14.9958 11.3221 14.2684C11.4667 13.541 11.8239 12.8728 12.3483 12.3484C12.8728 11.8239 13.541 11.4668 14.2684 11.3221C14.9958 11.1774 15.7498 11.2516 16.4351 11.5355C17.1203 11.8193 17.706 12.2999 18.118 12.9166C18.5301 13.5333 18.75 14.2583 18.75 15C18.75 15.9946 18.3549 16.9484 17.6517 17.6517C16.9484 18.3549 15.9946 18.75 15 18.75Z" fill="white"></path>
    <path d="M6.09998 9.987H3.85298V7.736C3.85298 7.56361 3.7845 7.39828 3.6626 7.27638C3.5407 7.15448 3.37537 7.086 3.20298 7.086C3.03059 7.086 2.86526 7.15448 2.74336 7.27638C2.62146 7.39828 2.55298 7.56361 2.55298 7.736V10.636C2.55298 10.8084 2.62146 10.9737 2.74336 11.0956C2.86526 11.2175 3.03059 11.286 3.20298 11.286H6.09998C6.27237 11.286 6.4377 11.2175 6.5596 11.0956C6.6815 10.9737 6.74998 10.8084 6.74998 10.636C6.74998 10.4636 6.6815 10.2983 6.5596 10.1764C6.4377 10.0545 6.27237 9.986 6.09998 9.986V9.987Z" fill="white"></path>
    <path d="M9.25194 11.287H8.29294C8.12055 11.287 7.95522 11.2185 7.83332 11.0966C7.71143 10.9747 7.64294 10.8094 7.64294 10.637C7.64294 10.4646 7.71143 10.2993 7.83332 10.1774C7.95522 10.0555 8.12055 9.987 8.29294 9.987H9.25194C9.42433 9.987 9.58966 10.0555 9.71156 10.1774C9.83346 10.2993 9.90194 10.4646 9.90194 10.637C9.90194 10.8094 9.83346 10.9747 9.71156 11.0966C9.58966 11.2185 9.42433 11.287 9.25194 11.287Z" fill="white"></path>
    <path d="M9.342 13.022H3C2.54913 13.022 2.11673 12.8429 1.79792 12.5241C1.47911 12.2053 1.3 11.7729 1.3 11.322V5.665H12.727C12.8994 5.665 13.0647 5.59652 13.1866 5.47462C13.3085 5.35272 13.377 5.18739 13.377 5.015C13.377 4.84261 13.3085 4.67728 13.1866 4.55538C13.0647 4.43348 12.8994 4.365 12.727 4.365H1.3V3C1.3 2.54913 1.47911 2.11673 1.79792 1.79792C2.11673 1.47911 2.54913 1.3 3 1.3H17C17.4509 1.3 17.8833 1.47911 18.2021 1.79792C18.5209 2.11673 18.7 2.54913 18.7 3V10.286C19.1899 10.6694 19.6176 11.1261 19.968 11.64C19.9843 11.5346 19.9949 11.4285 20 11.322V3C20 2.20435 19.6839 1.44129 19.1213 0.87868C18.5587 0.31607 17.7956 0 17 0L3 0C2.20435 0 1.44129 0.31607 0.87868 0.87868C0.31607 1.44129 0 2.20435 0 3L0 11.322C0 12.1176 0.31607 12.8807 0.87868 13.4433C1.44129 14.0059 2.20435 14.322 3 14.322H9.041C9.09197 13.8787 9.19294 13.4426 9.342 13.022Z" fill="white"></path>
</svg>