<svg xmlns="http://www.w3.org/2000/svg" fill="white" id="Layer_1" data-name="Layer 1" viewBox="0 0 122.88 118.92" width="20">
  <path class="cls-1" d="M39.16,0H75.57a8.74,8.74,0,0,1,8.72,8.72V31.56a8.74,8.74,0,0,1-8.72,8.72H54.23L41,51.67a1.47,1.47,0,0,1-2.07-.16,1.49,1.49,0,0,1-.35-1l.71-10.18h-.12a8.74,8.74,0,0,1-8.72-8.72V8.72A8.74,8.74,0,0,1,39.16,0ZM51.51,89.14c2.06-3.31,2.8-8.53.56-12-.9-1.39-.54-3.64-.54-5.55,0-19-33.24-19-33.24,0,0,2.38.54,4-.74,5.91-2.19,3.16-1.06,8.76.78,11.67,1.87,5.44,9,8.6,2.9,14.26S2.49,102,0,118.92H122.88c-2.27-13.67-13-6.71-17.46-12.77-3.77-5.06,1-6.09,2.48-10.51,1.48-2.33,2.39-6.83.63-9.37-1-1.51-.6-3.08-.6-5,0-15.29-26.05-15.29-26.05,0,0,1.52.29,3.59-.43,4.7-1.8,2.8-1.2,7,.45,9.65,1.22,4.29,6.13,6.32,3,10.64s-10.39,3.49-14.89,6.1c-4.76-5.83-15.95-3.66-20.94-9.2-5.54-6.15.85-8.3,2.48-14ZM88.57,17.76A8.56,8.56,0,0,1,93,20.12a7.82,7.82,0,0,1,2.51,5.72V45.42A8.57,8.57,0,0,1,87,54h-.31l.91,11.88L72,53.63H48.19l8.63-8.77H81.34a7.27,7.27,0,0,0,7.25-7.25V18.34c0-.2,0-.39,0-.58ZM43.46,25.41a1.48,1.48,0,0,1,0-2.95H65.1a1.48,1.48,0,0,1,0,2.95Zm0-9.77a1.48,1.48,0,0,1,0-3H71.53a1.48,1.48,0,0,1,0,3Zm32.1-12.7H39.16a5.8,5.8,0,0,0-5.78,5.78V31.56a5.8,5.8,0,0,0,5.78,5.78h1.69a1.47,1.47,0,0,1,1.46,1.58l-.57,8.24,10.92-9.39a1.49,1.49,0,0,1,1-.43H75.56a5.8,5.8,0,0,0,5.78-5.78V8.72a5.8,5.8,0,0,0-5.78-5.78Z"></path>
</svg>
