<svg xmlns="http://www.w3.org/2000/svg" width="170" height="30" viewBox="0 0 170 30" fill="none">
    <g clip-path="url(#clip0)">
        <path d="M19.9195 17.7344C19.7755 17.7344 19.622 17.7056 19.478 17.6479L0.765061 10.2849C0.314031 10.1022 0.0069466 9.66968 0.0069466 9.17945C-0.00264978 8.68922 0.285242 8.24706 0.736272 8.05481L19.4492 0.0862126C19.7467 -0.0387473 20.0922 -0.0387473 20.3897 0.0862126L39.1026 8.05481C39.5537 8.24706 39.8415 8.68922 39.8319 9.17945C39.8224 9.66968 39.5249 10.1022 39.0738 10.2849L20.3609 17.6479C20.2169 17.7056 20.0634 17.7344 19.9195 17.7344ZM4.3733 9.13139L19.9195 15.2448L35.4656 9.13139L19.9195 2.50851L4.3733 9.13139Z" fill="#4E89FF"></path>
        <path d="M19.9096 23.8673C19.7656 23.8673 19.6121 23.8385 19.4682 23.7808L0.755203 16.4178C0.141034 16.1871 -0.156454 15.4854 0.083456 14.8702C0.323366 14.255 1.0239 13.9474 1.63807 14.1877L19.9096 21.3778L38.1811 14.1877C38.7953 13.9474 39.4958 14.2454 39.7357 14.8702C39.9756 15.4854 39.6782 16.1871 39.0544 16.4274L20.3414 23.7904C20.2071 23.8385 20.0631 23.8673 19.9096 23.8673Z" fill="#4E89FF"></path>
        <path d="M19.9096 30C19.7656 30 19.6121 29.9712 19.4681 29.9135L0.755181 22.5505C0.141012 22.3102 -0.166072 21.6085 0.0738377 20.9933C0.313747 20.3781 1.01428 20.0705 1.62845 20.3108L19.9 27.5008L38.1715 20.3108C38.7857 20.0705 39.4862 20.3685 39.7261 20.9933C39.966 21.6085 39.6685 22.3102 39.0448 22.5505L20.3318 29.9135C20.2071 29.9712 20.0631 30 19.9096 30Z" fill="#4E89FF"></path>
        <path d="M67.2842 26.3377H61.6319V18.2346H57.0928V13.5822H61.6415V11.852C61.7087 11.0061 61.5263 10.1602 61.1233 9.42007C60.6243 8.67992 59.7894 8.25698 58.9065 8.29543C57.9469 8.23775 57.0256 8.70876 56.5074 9.5258C56.1332 10.2275 55.9604 11.0253 56.018 11.8231V26.3377H50.3657V11.9385C50.2506 9.6796 50.9703 7.44954 52.3906 5.69049C54.0028 3.84493 56.3635 2.83564 58.8009 2.95099C61.44 2.82603 63.9734 4.00834 65.576 6.12305C66.7947 7.89171 67.3993 10.0064 67.2842 12.15V26.3377Z" fill="#1E3C72"></path>
        <path d="M80.7 10.314H85.7573V19.3496C85.8628 21.3585 85.1623 23.3291 83.8092 24.819C82.3697 26.2127 80.4121 26.9433 78.4064 26.8279C77.0917 26.8472 75.7962 26.5588 74.6158 25.9821C72.1688 24.7709 70.9404 22.512 70.9404 19.1958V10.314H76.0073V18.6286C76.0073 20.7145 76.7846 21.7526 78.3392 21.7526C79.1357 21.7911 79.8843 21.3778 80.2873 20.6953C80.6136 19.984 80.7479 19.1958 80.6904 18.4076L80.7 10.314Z" fill="#1E3C72"></path>
        <path d="M94.3172 14.7068V19.3111C94.2212 20.0897 94.4611 20.8683 94.9889 21.445C95.6031 21.8295 96.3324 22.0026 97.0521 21.9353H98.3573V26.3377H96.4188C93.9621 26.3377 92.1484 25.8186 90.9968 24.7901C89.8453 23.7616 89.2599 22.1275 89.2599 19.8879V5.19064H94.3268V10.314H98.3669V14.7068H94.3172Z" fill="#1E3C72"></path>
        <path d="M108.51 9.7565C110.813 9.72766 113.04 10.6601 114.633 12.323C117.924 15.62 117.924 20.9548 114.633 24.2519C114.614 24.2711 114.604 24.2807 114.585 24.2999C112.982 25.9532 110.765 26.8664 108.462 26.8183C106.159 26.8568 103.942 25.9628 102.311 24.3384C100.641 22.7716 99.7007 20.5703 99.7487 18.2826C99.7007 15.9853 100.641 13.7744 102.321 12.2076C103.962 10.5928 106.197 9.70844 108.51 9.7565ZM108.376 14.8606C107.483 14.851 106.62 15.2067 106.006 15.8603C104.672 17.206 104.681 19.3784 106.025 20.7145C106.668 21.3586 107.541 21.7142 108.453 21.7142C109.345 21.7238 110.209 21.3682 110.823 20.7241C111.466 20.0897 111.821 19.2246 111.802 18.3211C111.821 17.3983 111.466 16.514 110.813 15.8603C110.18 15.2067 109.288 14.8414 108.376 14.8606Z" fill="#1E3C72"></path>
        <path d="M124.709 26.3377H119.642V3.40274H124.709V26.3377Z" fill="#1E3C72"></path>
        <path d="M130.572 2.16277C131.417 2.15316 132.223 2.48959 132.799 3.10477C133.394 3.70074 133.72 4.50817 133.71 5.35405C133.71 7.11311 132.29 8.54534 130.524 8.54534C129.68 8.54534 128.874 8.20891 128.269 7.61295C127.655 7.02659 127.319 6.21916 127.329 5.37328C127.319 4.51778 127.665 3.69112 128.279 3.09516C128.883 2.47997 129.709 2.14354 130.572 2.16277ZM133.058 26.3377H127.991V10.314H133.058V26.3377Z" fill="#1E3C72"></path>
        <path d="M150.734 26.3377H145.706V22.81C145.773 21.9929 145.571 21.1663 145.14 20.4742C144.593 19.8975 143.806 19.5995 143.009 19.686H141.512V26.3377H136.445V3.40274H141.512V15.6104H142.366C143.124 15.6104 143.719 15.1009 144.161 14.082L145.773 10.3044H151.118L149.103 14.7068C148.853 15.2739 148.537 15.793 148.143 16.2736C147.798 16.61 147.404 16.8984 146.973 17.1099C149.477 17.9077 150.725 19.7725 150.725 22.7042L150.734 26.3377Z" fill="#1E3C72"></path>
        <path d="M166.847 19.1285L170.004 21.8968C169.198 23.1656 168.171 24.2711 166.971 25.1746C165.407 26.2608 163.546 26.8375 161.636 26.8183C159.352 26.8664 157.154 25.982 155.542 24.3672C153.901 22.8004 152.989 20.6088 153.037 18.3403C153.028 16.6966 153.488 15.0913 154.371 13.7071C155.225 12.3134 156.483 11.2175 157.97 10.5543C159.15 10.0256 160.427 9.75648 161.713 9.76609C164.275 9.66035 166.722 10.8427 168.238 12.9093C168.776 13.7071 169.236 14.553 169.591 15.447L160.83 20.6761L159.064 17.6001L163.757 14.678C163.162 14.1301 162.384 13.8321 161.578 13.8417C160.542 13.8225 159.553 14.2839 158.91 15.1009C158.267 15.9084 157.922 16.9176 157.951 17.9558C157.912 19.09 158.296 20.1954 159.035 21.0509C159.774 21.9064 160.868 22.387 162 22.339C164.121 22.3486 166.031 21.0798 166.847 19.1285Z" fill="#1E3C72"></path>
    </g>
    <defs>
        <clipPath id="clip0">
            <rect width="170" height="30" fill="white"></rect>
        </clipPath>
    </defs>
</svg>