<svg xmlns="http://www.w3.org/2000/svg" width="47" height="77" viewBox="0 0 57 87" fill="none">
    <path d="M40.3451 59.58L2.31604 81.537V36.251L40.346 14.294C43.997 12.186 46.957 14.424 46.957 19.294V46.949C46.957 51.816 43.9971 57.47 40.3451 59.58Z" fill="url(#paint0_linear)"></path>
    <path d="M47.1131 19.449L12.0221 39.709C10.8006 40.3275 9.4507 40.6497 8.08157 40.6497C6.71245 40.6497 5.36252 40.3275 4.14105 39.709C3.7044 39.5118 3.32552 39.2061 3.04053 38.821C2.75554 38.4359 2.57395 37.9842 2.51306 37.509V37.356L4.66107 36.121L40.5431 15.404C43.6341 13.621 46.2271 14.95 46.9521 18.352C47.0284 18.714 47.0822 19.0803 47.1131 19.449Z" fill="#4D5FD1"></path>
    <path d="M45.1081 20.684L10.0161 40.944C8.79461 41.5625 7.44469 41.8847 6.07556 41.8847C4.70643 41.8847 3.35654 41.5625 2.13507 40.944C1.69813 40.7472 1.31901 40.4417 1.03397 40.0565C0.748923 39.6713 0.567509 39.2193 0.50708 38.744V38.592L2.65506 37.353L38.5371 16.636C41.6281 14.853 44.2211 16.182 44.9461 19.584C45.0229 19.9469 45.077 20.3143 45.1081 20.684Z" fill="#4D5FD1"></path>
    <path d="M44.298 23.22V23.992L44.267 23.973C44.217 23.945 44.167 23.917 44.118 23.886L42.459 22.927C42.4376 22.9158 42.4169 22.9035 42.397 22.89V22.118L42.855 22.383L44.298 23.22Z" fill="#FFBB1E"></path>
    <path d="M51.121 8.52002L53.014 9.612V8.83902L51.121 7.74701V8.52002Z" fill="#FFBB1E"></path>
    <path d="M52.941 11.753C52.941 11.818 52.941 11.884 52.935 11.953C52.8659 13.602 52.4574 15.219 51.735 16.703C50.702 19.0032 49.0376 20.9631 46.935 22.355C46.879 22.392 46.82 22.427 46.764 22.461C46.689 22.505 46.618 22.545 46.543 22.582C45.8535 22.9742 45.0887 23.2162 44.299 23.292C43.9956 23.3183 43.69 23.3048 43.39 23.252C43.0642 23.1965 42.7497 23.0881 42.459 22.931C42.4376 22.9198 42.417 22.9074 42.397 22.894C41.277 22.253 40.582 20.868 40.582 18.894V18.863C40.7039 16.724 41.3269 14.6435 42.4008 12.7896C43.4746 10.9356 44.9692 9.36004 46.764 8.18999C48.464 7.20599 50.004 7.11299 51.122 7.75099C51.153 7.76699 51.184 7.78497 51.215 7.80397C51.4895 7.97497 51.7343 8.18944 51.94 8.43898C52.1585 8.69935 52.3387 8.98962 52.475 9.30098C52.7714 9.99714 52.929 10.7445 52.939 11.501C52.941 11.585 52.941 11.669 52.941 11.753Z" fill="#FFBB1E"></path>
    <path d="M54.749 12.799C54.6566 15.1653 53.916 17.4608 52.608 19.435C51.6005 21.0892 50.2175 22.4828 48.571 23.503C46.912 24.459 45.409 24.577 44.297 23.989C44.288 23.983 44.275 23.98 44.266 23.973C44.216 23.945 44.166 23.917 44.117 23.886C43.8414 23.7141 43.5956 23.4986 43.389 23.248C43.1716 22.9857 42.9916 22.6946 42.854 22.383C42.5288 21.608 42.3707 20.7732 42.39 19.933C42.3951 19.1652 42.4881 18.4006 42.667 17.654C43.4782 14.1925 45.591 11.1761 48.567 9.23099C49.3387 8.75422 50.2121 8.46641 51.116 8.39099C51.3899 8.37495 51.6647 8.39072 51.935 8.43799C52.2621 8.492 52.5778 8.60052 52.869 8.759C52.916 8.787 52.962 8.812 53.009 8.84C54.089 9.503 54.749 10.872 54.749 12.799Z" fill="#FFD06C"></path>
    <path d="M52.938 11.504C52.169 10.047 50.501 9.69199 48.571 10.804C46.4099 12.2117 44.8287 14.3511 44.117 16.83C43.8858 17.5796 43.7642 18.3586 43.756 19.143C43.756 21.372 44.898 22.643 46.542 22.576C47.2616 22.5255 47.9582 22.301 48.572 21.922C50.1563 20.9224 51.4303 19.5008 52.251 17.817C52.9544 16.5138 53.3435 15.0642 53.387 13.584C53.4073 12.8646 53.2532 12.151 52.938 11.504ZM52.194 17.661C51.3956 19.3383 50.1397 20.756 48.571 21.751C48.0682 22.0529 47.5128 22.2564 46.934 22.351C45.166 22.606 43.906 21.364 43.906 19.058C43.9146 18.271 44.0393 17.4896 44.276 16.739C44.9796 14.3697 46.504 12.3284 48.576 10.981C50.568 9.82999 52.276 10.296 52.94 11.949C53.1489 12.4993 53.2507 13.0845 53.24 13.673C53.1991 15.0646 52.8414 16.4285 52.194 17.661Z" fill="white"></path>
    <path d="M48.992 15.333C48.263 15.394 48.14 15.29 48.14 15.033C48.1544 14.8573 48.216 14.6887 48.3182 14.545C48.4205 14.4014 48.5597 14.2881 48.721 14.217C48.9887 14.0391 49.3087 13.957 49.629 13.984L49.953 14.019L50.353 12.469L50.153 12.434C49.8306 12.398 49.5045 12.4546 49.213 12.597V11.832L48.069 12.492V13.333C47.6958 13.6589 47.3915 14.0563 47.1741 14.5016C46.9567 14.9469 46.8305 15.4312 46.803 15.926C46.803 17.067 47.603 17.126 48.387 17.026C49.014 16.959 49.142 17.138 49.142 17.426C49.1168 17.6363 49.0396 17.837 48.9174 18.01C48.7952 18.183 48.6318 18.3229 48.442 18.417C48.1393 18.6128 47.7761 18.693 47.419 18.643L47.088 18.567L46.675 20.167L46.864 20.215C47.2601 20.2668 47.6625 20.197 48.018 20.015V20.815L49.1541 20.159V19.282C49.5453 18.9412 49.8646 18.5258 50.0935 18.0602C50.3224 17.5945 50.4561 17.0879 50.487 16.57C50.479 15.338 49.686 15.261 48.992 15.333Z" fill="#F59036"></path>
    <g opacity="0.5" style="mix-blend-mode: multiply">
        <path d="M52.6081 19.436C51.6005 21.0902 50.2175 22.4838 48.571 23.504C46.912 24.46 45.4091 24.578 44.2981 23.99L44.2671 23.971C44.2171 23.943 44.1671 23.915 44.1181 23.884L42.459 22.925C42.4377 22.9138 42.417 22.9015 42.3971 22.888C41.7727 22.4368 41.2768 21.8305 40.9585 21.129C40.6401 20.4275 40.5104 19.655 40.5821 18.888C40.5821 18.3 40.802 16.867 40.802 16.867L42.667 17.652L43.0871 17.409V17.424L44.117 16.83L44.276 16.737L46.0661 15.704C46.3237 15.5534 46.591 15.4198 46.8661 15.304C47.2748 15.1295 47.7049 15.0101 48.145 14.949C48.8492 14.8383 49.5703 14.9464 50.2111 15.2586C50.8518 15.5709 51.3813 16.0722 51.7281 16.695C51.9136 16.9998 52.069 17.322 52.192 17.657L52.248 17.816C52.4238 18.342 52.5445 18.885 52.6081 19.436Z" fill="#FFBB1E"></path>
    </g>
    <path d="M5.60107 22.005V22.777L5.57007 22.758C5.52007 22.73 5.47005 22.702 5.42105 22.671L3.76205 21.712C3.74074 21.7008 3.72006 21.6884 3.70007 21.675V20.903L4.15805 21.168L5.60107 22.005Z" fill="#FFBB1E"></path>
    <path d="M12.422 7.30499L14.315 8.397V7.62399L12.422 6.53198V7.30499Z" fill="#FFBB1E"></path>
    <path d="M14.244 10.538C14.244 10.603 14.244 10.669 14.238 10.738C14.238 10.938 14.222 11.138 14.204 11.338C14.0597 12.7778 13.6637 14.1811 13.034 15.484C12.0011 17.7843 10.3367 19.7442 8.234 21.136C8.178 21.173 8.11898 21.208 8.06298 21.242C7.98798 21.286 7.917 21.326 7.842 21.363C7.15237 21.7551 6.38765 21.997 5.59798 22.073C5.29453 22.0993 4.98896 22.0858 4.68899 22.033C4.36319 21.9776 4.04868 21.8692 3.75799 21.712C3.73668 21.7008 3.716 21.6884 3.69601 21.675C3.15962 21.3184 2.7177 20.8371 2.40819 20.2723C2.09869 19.7074 1.93084 19.076 1.919 18.432C1.89373 18.1808 1.88136 17.9284 1.88198 17.676V17.645C2.00387 15.5059 2.62689 13.4255 3.70074 11.5716C4.77458 9.71759 6.26919 8.14203 8.06399 6.97197C9.76399 5.98797 11.304 5.89498 12.422 6.53298C12.453 6.54898 12.484 6.56699 12.515 6.58599C12.7895 6.7569 13.0344 6.97135 13.24 7.22096C13.4585 7.48135 13.6386 7.77165 13.775 8.08299C14.0715 8.7791 14.2291 9.52642 14.239 10.283C14.244 10.37 14.244 10.454 14.244 10.538Z" fill="#FFBB1E"></path>
    <path d="M16.052 11.583C15.9595 13.9493 15.2189 16.2448 13.911 18.219C12.9035 19.8732 11.5204 21.2668 9.87396 22.287C8.21496 23.243 6.71198 23.361 5.59998 22.773C5.59098 22.767 5.57797 22.764 5.56897 22.757C5.51897 22.729 5.46898 22.701 5.41998 22.67C5.14438 22.4981 4.89852 22.2827 4.69199 22.032C4.47469 21.7697 4.29465 21.4786 4.15698 21.167C3.83191 20.392 3.67378 19.5572 3.69296 18.717C3.6927 18.2585 3.72613 17.8006 3.79297 17.347C3.83697 17.047 3.89298 16.747 3.96698 16.438C4.77815 12.9765 6.89096 9.96013 9.86698 8.01499C10.6387 7.53822 11.512 7.25041 12.416 7.17499C12.6899 7.15889 12.9647 7.17466 13.235 7.22199C13.562 7.27567 13.8777 7.38385 14.169 7.542C14.216 7.57 14.262 7.59499 14.309 7.62299C14.7588 7.93134 15.1372 8.33266 15.4186 8.79984C15.7 9.26702 15.8778 9.78919 15.94 10.331C16.0156 10.744 16.0531 11.1631 16.052 11.583Z" fill="#FFD06C"></path>
    <path d="M14.552 11.139C14.4841 10.8438 14.3796 10.5583 14.241 10.289C13.472 8.83201 11.804 8.477 9.87396 9.589C7.71293 10.9967 6.13163 13.1361 5.41995 15.615C5.32828 15.9188 5.25252 16.2273 5.19296 16.539C5.10611 16.9966 5.06126 17.4612 5.05896 17.927C5.05896 20.156 6.20097 21.427 7.84497 21.36C8.56423 21.3092 9.26044 21.0848 9.87396 20.706C11.4583 19.7062 12.7324 18.2842 13.5529 16.6C14.2562 15.2967 14.6452 13.8472 14.689 12.367C14.6924 11.9537 14.6464 11.5414 14.552 11.139ZM13.4969 16.446C12.6985 18.1233 11.4427 19.541 9.87396 20.536C9.37121 20.8378 8.8157 21.0414 8.23697 21.136C6.46897 21.391 5.20895 20.149 5.20895 17.843C5.21034 17.3759 5.25724 16.91 5.34897 16.452C5.4098 16.139 5.48654 15.8292 5.57895 15.524C6.28255 13.1547 7.80697 11.1134 9.87897 9.766C11.871 8.614 13.579 9.08098 14.243 10.734C14.3075 10.895 14.3607 11.0604 14.402 11.229C14.4978 11.6315 14.5448 12.0442 14.542 12.458C14.5014 13.8495 14.144 15.2134 13.4969 16.446Z" fill="white"></path>
    <path d="M10.2941 14.119C9.56507 14.18 9.44208 14.076 9.44208 13.819C9.45647 13.6432 9.51804 13.4747 9.6203 13.3311C9.72257 13.1874 9.86172 13.0741 10.0231 13.003C10.2911 12.825 10.6115 12.7429 10.9321 12.77L11.2551 12.805L11.6551 11.255L11.4551 11.22C11.1326 11.1839 10.8066 11.2404 10.5151 11.383V10.618L9.37103 11.278V12.119C8.99778 12.4449 8.69349 12.8423 8.47607 13.2876C8.25866 13.7329 8.13251 14.2172 8.10504 14.712C8.10504 15.853 8.90509 15.912 9.68909 15.812C10.3161 15.745 10.4441 15.924 10.4441 16.212C10.4188 16.4223 10.3416 16.623 10.2194 16.796C10.0972 16.969 9.93384 17.1089 9.74408 17.203C9.44112 17.3983 9.07813 17.4785 8.72107 17.429L8.39008 17.353L7.97705 18.953L8.16504 19.001C8.56109 19.0528 8.9636 18.9831 9.31909 18.801V19.601L10.4551 18.945V18.079C10.8463 17.7381 11.1656 17.3228 11.3945 16.8571C11.6233 16.3915 11.7572 15.8849 11.7881 15.367C11.7811 14.124 10.9841 14.047 10.2941 14.119Z" fill="#F59036"></path>
    <g opacity="0.5" style="mix-blend-mode: multiply">
        <path d="M16.053 11.584C15.9605 13.9503 15.2199 16.2458 13.912 18.22C12.9045 19.8742 11.5215 21.2678 9.87505 22.288C8.21605 23.243 6.71203 23.362 5.60103 22.774L5.57003 22.755C5.52003 22.727 5.47004 22.699 5.42104 22.668L3.76204 21.709C3.74072 21.6978 3.72001 21.6854 3.70003 21.672C2.72903 21.115 1.64905 19.813 1.94805 16.617L3.79604 17.346L5.19603 16.54L5.35204 16.45L8.10704 14.859L9.52605 14.04L14.207 11.34L14.4 11.231L14.556 11.141L15.95 10.335C16.0224 10.7473 16.0569 11.1654 16.053 11.584Z" fill="#FFBB1E"></path>
    </g>
    <path d="M53.5081 22.0909L18.4171 42.351C17.1956 42.9694 15.8457 43.2917 14.4766 43.2917C13.1074 43.2917 11.7575 42.9694 10.5361 42.351C10.0991 42.1542 9.71998 41.8486 9.43494 41.4634C9.14989 41.0782 8.96851 40.6263 8.90808 40.1509V40.0049L11.056 38.766L46.938 18.049C50.029 16.265 52.622 17.5949 53.347 20.9969C53.4234 21.3579 53.4772 21.7233 53.5081 22.0909Z" fill="url(#paint1_linear)"></path>
    <path d="M54.264 23.836V51.392C54.264 56.243 51.328 61.878 47.703 63.981L47.042 64.366L47.135 64.419L9.93503 85.989C8.72417 86.6053 7.38473 86.9266 6.02603 86.9266C4.66733 86.9266 3.32789 86.6053 2.11703 85.989C1.63515 85.7825 1.22539 85.4377 0.939667 84.9982C0.653942 84.5586 0.505102 84.0442 0.512024 83.52L0.503052 83.526V38.552C0.563287 39.0244 0.743254 39.4736 1.02591 39.8569C1.30857 40.2402 1.68452 40.5449 2.11804 40.742C3.32892 41.3583 4.66835 41.6795 6.02704 41.6795C7.38573 41.6795 8.72516 41.3583 9.93604 40.742L44.745 20.555V20.57L47.7 18.855C51.328 16.755 54.264 18.985 54.264 23.836Z" fill="url(#paint2_linear)"></path>
    <path opacity="0.2" d="M9.84506 40.741C8.63836 41.315 7.31632 41.6054 5.98013 41.5898C4.64394 41.5742 3.32905 41.253 2.13608 40.651C1.69914 40.4542 1.31999 40.1487 1.03494 39.7635C0.749899 39.3783 0.568486 38.9263 0.508057 38.451V83.587L0.517059 83.581C0.510483 84.1079 0.66082 84.6249 0.948944 85.0662C1.23707 85.5075 1.64996 85.8531 2.13507 86.059C3.32806 86.661 4.64295 86.9821 5.97913 86.9977C7.3153 87.0132 8.63733 86.7229 9.84406 86.149L9.84506 40.741Z" fill="#4D5FD1"></path>
    <g opacity="0.5">
        <path opacity="0.5" d="M6.74908 44.346L6.73709 44.035C7.4642 44.0071 8.1861 43.9001 8.89008 43.716L8.96909 44.016C8.24321 44.206 7.49885 44.3167 6.74908 44.346ZM4.51108 44.128C3.78472 43.9601 3.07017 43.7446 2.37207 43.483L2.48007 43.191C3.16546 43.4477 3.86698 43.6592 4.58008 43.824L4.51108 44.128ZM11.0621 43.208L10.9171 42.933C11.0078 42.885 11.0971 42.8357 11.1851 42.785L12.8321 41.834L12.9881 42.103L11.3411 43.054C11.2498 43.1053 11.1567 43.1556 11.0621 43.205V43.208ZM14.9051 40.996L14.7491 40.727L16.6671 39.62L16.8231 39.889L14.9051 40.996ZM18.7401 38.782L18.5841 38.513L20.5021 37.406L20.6581 37.675L18.7401 38.782ZM22.5751 36.568L22.4191 36.299L24.3371 35.192L24.4931 35.461L22.5751 36.568ZM26.4101 34.354L26.2541 34.085L28.1721 32.978L28.3281 33.247L26.4101 34.354ZM30.2451 32.14L30.0891 31.871L32.0061 30.764L32.1621 31.033L30.2451 32.14ZM34.0801 29.926L33.9241 29.657L35.8421 28.55L35.9981 28.819L34.0801 29.926ZM37.9151 27.712L37.7591 27.443L39.6761 26.336L39.8321 26.605L37.9151 27.712Z" fill="white"></path>
        <path opacity="0.5" d="M41.3931 25.493L41.2371 25.224L42.4141 24.544L43.1261 24.136L43.2811 24.406L42.1031 25.082L41.3931 25.493Z" fill="white"></path>
        <path opacity="0.5" d="M44.937 62.957L44.781 62.688L46.328 61.788C46.4527 61.716 46.5767 61.638 46.7 61.554L46.876 61.811C46.746 61.8996 46.6153 61.982 46.484 62.058L44.937 62.957ZM48.546 60.273L48.309 60.073C48.7849 59.5105 49.2118 58.9083 49.585 58.273L49.853 58.432C49.4709 59.0817 49.0339 59.6976 48.547 60.273H48.546ZM50.859 56.402L50.571 56.283C50.8531 55.601 51.0843 54.8991 51.263 54.183L51.563 54.258C51.3813 54.989 51.146 55.7056 50.859 56.402ZM51.914 52.018L51.604 52C51.6147 51.8147 51.62 51.6313 51.62 51.45V49.771H51.931V51.45C51.931 51.6367 51.9253 51.8256 51.914 52.017V52.018ZM51.931 47.532H51.62V45.292H51.931V47.532ZM51.931 43.055H51.62V40.817H51.931V43.055ZM51.931 38.578H51.62V36.34H51.931V38.578ZM51.931 34.101H51.62V31.863H51.931V34.101ZM51.931 29.624H51.62V27.386H51.931V29.624ZM51.931 25.148H51.62V23.792C51.6204 23.5031 51.6054 23.2143 51.575 22.927L51.884 22.893C51.9157 23.192 51.9314 23.4923 51.931 23.793V25.148ZM45.146 23.292L44.991 23.022L46.93 21.905L47.086 22.174L45.146 23.292ZM49.023 21.056L48.87 20.785C49.2926 20.5172 49.7766 20.362 50.276 20.334C50.4352 20.3353 50.5924 20.3706 50.7369 20.4375C50.8815 20.5044 51.01 20.6014 51.114 20.722L50.887 20.934C50.8121 20.8448 50.7189 20.7728 50.6136 20.7229C50.5083 20.673 50.3935 20.6465 50.277 20.645C49.8308 20.6741 49.3992 20.8162 49.023 21.058V21.056Z" fill="white"></path>
        <path opacity="0.5" d="M41.2761 65.221L41.1201 64.952L41.8281 64.543L41.7401 64.493L42.9181 63.811L43.0741 64.08L42.3661 64.49L42.4541 64.541L41.2761 65.221Z" fill="white"></path>
        <path opacity="0.5" d="M6.07806 84.774C5.39957 84.7127 4.72929 84.581 4.07806 84.381L4.16907 84.081C4.79626 84.2737 5.44168 84.401 6.09506 84.461H6.21207L6.21909 84.772L6.07806 84.774ZM8.35507 84.382L8.24109 84.093C8.39754 84.0319 8.54926 83.9594 8.69507 83.876L10.0861 83.076L10.2421 83.345L8.85107 84.145C8.69198 84.2373 8.52618 84.3175 8.35507 84.385V84.382ZM2.39706 83.772C1.75632 83.442 1.14508 83.0575 0.570068 82.623L0.758087 82.375C1.31852 82.799 1.91436 83.1741 2.53906 83.496L2.39706 83.772ZM12.0881 82.272L11.9321 82.003L13.7791 80.937L13.9351 81.206L12.0881 82.272ZM15.7811 80.14L15.6251 79.871L17.4721 78.805L17.6281 79.074L15.7811 80.14ZM19.4741 78.008L19.3181 77.739L21.1651 76.673L21.3211 76.942L19.4741 78.008ZM23.1671 75.876L23.0111 75.607L24.8581 74.541L25.0141 74.81L23.1671 75.876ZM26.8611 73.744L26.7051 73.475L28.5521 72.409L28.7081 72.678L26.8611 73.744ZM30.5551 71.612L30.3991 71.343L32.2461 70.277L32.4021 70.546L30.5551 71.612ZM34.2481 69.48L34.0921 69.211L35.9391 68.145L36.0951 68.414L34.2481 69.48ZM37.9411 67.348L37.7851 67.079L39.6321 66.013L39.7881 66.282L37.9411 67.348Z" fill="white"></path>
    </g>
    <path d="M47.51 19.297L45.104 20.685L10.013 40.945C8.79156 41.5635 7.44167 41.8857 6.07254 41.8857C4.70341 41.8857 3.35349 41.5635 2.13202 40.945C1.69536 40.7478 1.31648 40.4421 1.03149 40.057C0.746506 39.6719 0.56492 39.2202 0.504028 38.745V38.592C0.565839 38.1171 0.747775 37.6658 1.03265 37.2808C1.31753 36.8959 1.69592 36.5899 2.13202 36.392L40.286 14.367L41.319 14.967L3.16504 36.992C2.98141 37.0949 2.80912 37.217 2.65103 37.356C1.58603 38.277 1.75804 39.535 3.16504 40.35C4.07903 40.7911 5.08355 41.0123 6.0983 40.9958C7.11304 40.9793 8.10986 40.7256 9.00903 40.255L44.943 19.586L46.478 18.699L47.51 19.297Z" fill="url(#paint3_linear)"></path>
    <path d="M37.582 0.708984V20.617L5.06201 39.392V19.484L37.582 0.708984Z" fill="white"></path>
    <path d="M36.026 5.42099V17.702C35.5713 17.9985 35.1928 18.398 34.9214 18.8682C34.65 19.3384 34.4933 19.8659 34.464 20.408L8.17798 35.584C8.17798 34.592 7.47797 34.184 6.61597 34.684V22.4C7.07 22.1027 7.44787 21.703 7.71918 21.233C7.99048 20.763 8.14764 20.2358 8.17798 19.694L34.464 4.51797C34.464 5.51497 35.163 5.91899 36.026 5.42099Z" fill="#CED7E2"></path>
    <path d="M24.7985 22.0966C26.7548 18.7705 26.7839 15.1585 24.8635 14.029C22.9431 12.8995 19.8005 14.6803 17.8442 18.0064C15.8879 21.3326 15.8588 24.9446 17.7792 26.0741C19.6996 27.2036 22.8422 25.4228 24.7985 22.0966Z" fill="white"></path>
    <path d="M30.764 15.564L29.082 16.535C28.682 16.765 28.359 16.521 28.359 15.988C28.3631 15.7173 28.4307 15.4513 28.5563 15.2115C28.6818 14.9716 28.8619 14.7646 29.082 14.607L30.764 13.636C31.164 13.406 31.487 13.65 31.487 14.183C31.4829 14.4537 31.4153 14.7196 31.2897 14.9595C31.1642 15.1993 30.9841 15.4064 30.764 15.564Z" fill="white"></path>
    <path d="M13.561 25.496L11.879 26.467C11.479 26.697 11.156 26.453 11.156 25.92C11.1602 25.6493 11.2278 25.3834 11.3534 25.1436C11.479 24.9038 11.659 24.6967 11.879 24.539L13.561 23.568C13.961 23.337 14.284 23.582 14.284 24.114C14.28 24.3849 14.2125 24.6511 14.087 24.8911C13.9614 25.1311 13.7813 25.3383 13.561 25.496Z" fill="white"></path>
    <g opacity="0.5" style="mix-blend-mode: multiply">
        <path d="M37.582 11.615V20.615L5.06201 39.389V30.389L37.582 11.615Z" fill="#CED7E2"></path>
    </g>
    <g opacity="0.5" style="mix-blend-mode: multiply">
        <path d="M54.333 31.859L46.01 36.778C43.31 38.334 41.178 42.596 41.24 46.296C41.301 49.996 43.54 51.734 46.232 50.178L54.332 45.39L54.333 31.859Z" fill="#F18C93"></path>
    </g>
    <path d="M54.2641 43.765L46.2341 48.507C43.8691 49.873 41.951 48.423 41.951 45.269C41.951 42.115 43.8691 38.451 46.2341 37.086L54.2641 32.344V43.765Z" fill="url(#paint4_linear)"></path>
    <path d="M56.2311 43.359C56.2311 43.5768 56.1742 43.7907 56.066 43.9796C55.9577 44.1685 55.8019 44.3259 55.6141 44.436L48.0081 48.982C45.6431 50.348 43.7251 48.898 43.7251 45.744C43.7251 42.59 45.6421 38.926 48.0081 37.561L56.2311 32.653V43.359Z" fill="url(#paint5_linear)"></path>
    <path d="M54.265 30.721L55.9581 31.835C56.0802 31.935 56.1708 32.0681 56.2192 32.2183C56.2677 32.3685 56.2717 32.5295 56.231 32.682L54.265 33.842V30.721Z" fill="url(#paint6_linear)"></path>
    <g opacity="0.5" style="mix-blend-mode: multiply">
        <path d="M51.5549 44.4854C52.9511 42.0671 52.9511 39.4533 51.555 38.6472C50.1589 37.8412 47.8952 39.1481 46.4991 41.5664C45.1029 43.9846 45.1029 46.5984 46.499 47.4045C47.8951 48.2106 50.1587 46.9036 51.5549 44.4854Z" fill="#F18C93"></path>
    </g>
    <path d="M52.7861 41.344C52.681 42.4311 52.331 43.4803 51.7624 44.4127C51.1938 45.3452 50.4213 46.1367 49.503 46.728C49.1389 46.9462 48.7217 47.0602 48.2972 47.0574C47.8726 47.0546 47.457 46.9352 47.0958 46.7121C46.7345 46.4891 46.4415 46.171 46.2488 45.7927C46.0561 45.4144 45.9711 44.9904 46.003 44.567C46.06 43.5168 46.3637 42.4948 46.8896 41.584C47.4156 40.6732 48.1489 39.8993 49.03 39.325C49.3963 39.0911 49.8184 38.9592 50.2527 38.9429C50.687 38.9266 51.1177 39.0264 51.5005 39.2322C51.8833 39.438 52.2043 39.7422 52.4303 40.1134C52.6563 40.4846 52.7791 40.9095 52.7861 41.344Z" fill="#CED7E2"></path>
    <path d="M51.9919 44.4924C53.1738 42.4453 53.1738 40.2327 51.992 39.5503C50.8101 38.868 48.8939 39.9743 47.712 42.0214C46.5301 44.0685 46.5301 46.2811 47.712 46.9635C48.8938 47.6458 50.81 46.5395 51.9919 44.4924Z" fill="#E9F0F8"></path>
    <path d="M40.2411 33.185L7.72009 51.961V32.052L40.2411 13.276V33.185Z" fill="white"></path>
    <path d="M38.6871 17.988V30.272C38.2323 30.5685 37.8539 30.9681 37.5825 31.4382C37.3111 31.9084 37.1544 32.4359 37.1251 32.978L10.8401 48.154C10.8401 47.162 10.1401 46.754 9.27808 47.254V34.972C9.7321 34.6747 10.11 34.275 10.3813 33.805C10.6526 33.335 10.8098 32.8078 10.8401 32.266L37.1251 17.09C37.1251 18.082 37.8241 18.486 38.6871 17.988Z" fill="#CED7E2"></path>
    <path d="M27.4591 34.6637C29.4155 31.3374 29.4446 27.7252 27.5242 26.5956C25.6037 25.4661 22.4609 27.2469 20.5044 30.5732C18.548 33.8995 18.5189 37.5117 20.4393 38.6412C22.3598 39.7708 25.5026 37.99 27.4591 34.6637Z" fill="white"></path>
    <path d="M33.424 28.13L31.742 29.101C31.342 29.332 31.019 29.087 31.019 28.554C31.0232 28.2833 31.0907 28.0174 31.2163 27.7775C31.3419 27.5377 31.5219 27.3306 31.742 27.173L33.424 26.202C33.824 25.971 34.147 26.216 34.147 26.749C34.1428 27.0197 34.0752 27.2856 33.9496 27.5254C33.8241 27.7653 33.6441 27.9723 33.424 28.13Z" fill="white"></path>
    <path d="M16.2211 38.063L14.5391 39.034C14.1391 39.264 13.816 39.02 13.816 38.487C13.8202 38.2163 13.8877 37.9503 14.0133 37.7105C14.1389 37.4706 14.319 37.2636 14.5391 37.106L16.2211 36.135C16.6211 35.904 16.9441 36.149 16.9441 36.682C16.94 36.9527 16.8724 37.2186 16.7468 37.4585C16.6213 37.6983 16.4412 37.9053 16.2211 38.063Z" fill="white"></path>
    <g opacity="0.5" style="mix-blend-mode: multiply">
        <path d="M40.2411 39.39L7.72107 58.166V38.258L40.2421 19.482L40.2411 39.39Z" fill="#CED7E2"></path>
    </g>
    <path d="M15.864 3.18097L16.084 4.10995L17.013 4.32996C17.0557 4.33985 17.0939 4.36393 17.1212 4.39825C17.1484 4.43258 17.1633 4.47514 17.1633 4.51898C17.1633 4.56283 17.1484 4.60536 17.1212 4.63968C17.0939 4.674 17.0557 4.69809 17.013 4.70798L16.084 4.92798L15.864 5.85696C15.8541 5.89968 15.8301 5.9378 15.7958 5.96509C15.7615 5.99237 15.7189 6.0072 15.675 6.0072C15.6312 6.0072 15.5886 5.99237 15.5543 5.96509C15.52 5.9378 15.4959 5.89968 15.486 5.85696L15.2661 4.92798L14.337 4.70798C14.2943 4.69809 14.2562 4.674 14.2289 4.63968C14.2017 4.60536 14.1868 4.56283 14.1868 4.51898C14.1868 4.47514 14.2017 4.43258 14.2289 4.39825C14.2562 4.36393 14.2943 4.33985 14.337 4.32996L15.2661 4.10995L15.486 3.18097C15.4959 3.13825 15.52 3.10016 15.5543 3.07288C15.5886 3.04559 15.6312 3.03073 15.675 3.03073C15.7189 3.03073 15.7615 3.04559 15.7958 3.07288C15.8301 3.10016 15.8541 3.13825 15.864 3.18097Z" fill="#FCE000"></path>
    <defs>
        <linearGradient id="paint0_linear" x1="9.32468" y1="54.8668" x2="124.523" y2="26.2225" gradientUnits="userSpaceOnUse">
            <stop stop-color="#45D7DE"></stop>
            <stop offset="1" stop-color="#4D5FD1"></stop>
        </linearGradient>
        <linearGradient id="paint1_linear" x1="4.13589" y1="46.6764" x2="58.8176" y2="-45.9797" gradientUnits="userSpaceOnUse">
            <stop stop-color="#45D7DE"></stop>
            <stop offset="1" stop-color="#4D5FD1"></stop>
        </linearGradient>
        <linearGradient id="paint2_linear" x1="-27.2376" y1="55.7322" x2="57.6661" y2="52.7078" gradientUnits="userSpaceOnUse">
            <stop stop-color="#45D7DE"></stop>
            <stop offset="1" stop-color="#4D5FD1"></stop>
        </linearGradient>
        <linearGradient id="paint3_linear" x1="1.44415" y1="41.3629" x2="56.393" y2="-51.2599" gradientUnits="userSpaceOnUse">
            <stop stop-color="#45D7DE"></stop>
            <stop offset="1" stop-color="#4D5FD1"></stop>
        </linearGradient>
        <linearGradient id="paint4_linear" x1="47.6766" y1="35.3959" x2="51.8584" y2="54.6725" gradientUnits="userSpaceOnUse">
            <stop stop-color="#45D7DE"></stop>
            <stop offset="1" stop-color="#4D5FD1"></stop>
        </linearGradient>
        <linearGradient id="paint5_linear" x1="-28.4969" y1="45.6896" x2="57.0898" y2="42.9573" gradientUnits="userSpaceOnUse">
            <stop stop-color="#45D7DE"></stop>
            <stop offset="1" stop-color="#4D5FD1"></stop>
        </linearGradient>
        <linearGradient id="paint6_linear" x1="55.4613" y1="34.822" x2="61.6298" y2="56.1604" gradientUnits="userSpaceOnUse">
            <stop stop-color="#45D7DE"></stop>
            <stop offset="1" stop-color="#4D5FD1"></stop>
        </linearGradient>
    </defs>
</svg>