<svg width="30" height="30" xmlns="http://www.w3.org/2000/svg" viewBox="0 0 68 68" fill="none" style="fill: white;">
    <path
        d="M34 68C52.7777 68 68 52.7777 68 34C68 15.2223 52.7777 0 34 0C15.2223 0 0 15.2223 0 34C0 52.7777 15.2223 68 34 68Z"
        fill="none"></path>
    <path
        d="M17.2782 21.2782H45.8609V27.8347C45.8609 28.7381 46.5966 29.4738 47.5 29.4738C48.4034 29.4738 49.1391 28.7381 49.1391 27.8347V21.2782C49.1391 19.4808 47.6676 18 45.8609 18H17.2782C15.4715 18 14 19.4715 14 21.2782V42.5774C14 44.3749 15.4715 45.8556 17.2782 45.8556H30.3818C31.2852 45.8556 32.021 45.1199 32.021 44.2165C32.021 43.3132 31.2852 42.5774 30.3818 42.5774H17.2782V21.2782Z"
        fill="white"></path>
    <path
        d="M36.3516 30.7218L27.8301 25.0408C27.5227 24.8359 27.1036 25.0594 27.1036 25.4319V36.794C27.1036 37.1665 27.5227 37.39 27.8301 37.1851L36.3516 31.5041C36.631 31.3085 36.631 30.8987 36.3516 30.7218Z"
        fill="white"></path>
    <path
        d="M41.1758 40.4354C40.8684 40.4354 40.5704 40.5565 40.3469 40.78C40.1327 40.9942 40.0023 41.2922 40.0023 41.6088C40.0023 41.9162 40.1234 42.2142 40.3469 42.4377C40.5611 42.6519 40.8591 42.7823 41.1758 42.7823H43.5041V45.1106C43.5041 45.4179 43.6251 45.7159 43.8487 45.9395C44.0629 46.1537 44.3609 46.284 44.6775 46.284C44.9849 46.284 45.2829 46.163 45.5064 45.9395C45.7206 45.7253 45.851 45.4272 45.851 45.1106V42.7823H48.1793C48.4866 42.7823 48.7846 42.6612 49.0081 42.4377C49.2223 42.2235 49.3527 41.9255 49.3527 41.6088C49.3527 41.3015 49.2317 41.0035 49.0081 40.78C48.7939 40.5658 48.4959 40.4354 48.1793 40.4354H45.851V38.1071C45.851 37.7998 45.7299 37.5017 45.5064 37.2782C45.2922 37.064 44.9942 36.9336 44.6775 36.9336C44.3702 36.9336 44.0722 37.0547 43.8487 37.2782C43.6344 37.4924 43.5041 37.7904 43.5041 38.1071V40.4354H41.1758Z"
        fill="white"></path>
    <path fill-rule="evenodd" clip-rule="evenodd"
        d="M35.3458 41.5995C35.3458 39.1222 36.333 36.7567 38.0745 35.0058C39.8254 33.255 42.2002 32.2771 44.6682 32.2771C47.1455 32.2771 49.5111 33.2643 51.2619 35.0058C53.0128 36.7567 53.9907 39.1316 53.9907 41.5995C53.9907 44.0768 53.0035 46.4424 51.2619 48.1932C49.5111 49.9441 47.1362 50.922 44.6682 50.922C42.1909 50.922 39.8254 49.9348 38.0745 48.1932C36.3236 46.4517 35.3458 44.0768 35.3458 41.5995ZM44.6682 48.603C42.8149 48.603 41.0361 47.8673 39.7229 46.5541C38.4098 45.241 37.6741 43.4622 37.6741 41.6089C37.6741 39.7555 38.4098 37.9767 39.7229 36.6636C41.0361 35.3504 42.8149 34.6147 44.6682 34.6147C46.5216 34.6147 48.3004 35.3504 49.6135 36.6636C50.9267 37.9767 51.6624 39.7555 51.6624 41.6089C51.6624 43.4622 50.9267 45.241 49.6135 46.5541C48.3097 47.858 46.5309 48.603 44.6682 48.603Z"
        fill="white"></path>
</svg>