<svg width="15" height="15" xmlns="http://www.w3.org/2000/svg" viewBox="0 0 20 20" fill="none">
    <path
        d="M19.411 13.078C19.2053 12.8608 18.9571 12.6882 18.6818 12.5711C18.4065 12.4539 18.1101 12.3946 17.811 12.397H17.539C17.558 12.328 17.574 12.268 17.586 12.219C17.7563 11.6126 17.7904 10.9761 17.686 10.355C17.6186 9.92049 17.4471 9.50876 17.186 9.15499C16.9265 8.80776 16.5553 8.56055 16.135 8.45499C15.999 8.41981 15.8593 8.40134 15.719 8.39999H15.7C15.6525 8.40125 15.6051 8.40492 15.558 8.41099C15.3463 8.43457 15.1437 8.50977 14.968 8.62999C14.932 8.65499 14.897 8.68199 14.868 8.70999C14.6625 8.88961 14.5088 9.12095 14.423 9.37999C14.414 9.40499 14.406 9.42999 14.398 9.45599L14.383 9.50899L14.335 9.67699L14.244 9.99499L14.194 10.172L13.994 10.89C13.994 10.904 13.986 10.921 13.98 10.939C13.764 11.276 13.542 11.606 13.321 11.933C13.191 12.128 13.066 12.32 12.938 12.514C12.769 12.4374 12.5854 12.3985 12.4 12.4H11.026C10.5818 12.4003 10.1559 12.5768 9.84184 12.8909C9.52777 13.2049 9.35122 13.6308 9.35095 14.075V18.075C9.35148 18.5191 9.52812 18.9448 9.84213 19.2588C10.1561 19.5728 10.5819 19.7495 11.026 19.75H12.026C12.44 19.7484 12.8386 19.5926 13.144 19.313C13.228 19.3602 13.3173 19.3974 13.41 19.424C13.949 19.54 14.531 19.666 15.01 19.767C15.288 19.826 15.532 19.877 15.71 19.913C15.804 19.932 15.895 19.948 15.961 19.96C16.0088 19.9712 16.0572 19.9799 16.106 19.986H16.144C16.235 19.995 16.326 19.999 16.416 19.999C17.0638 19.997 17.6926 19.7798 18.2035 19.3816C18.7145 18.9834 19.0787 18.4267 19.239 17.799C19.449 16.99 19.881 15.299 19.881 15.299C19.9398 15.1003 19.9767 14.8957 19.991 14.689C20.0093 14.3951 19.9673 14.1006 19.8676 13.8235C19.7678 13.5465 19.6124 13.2927 19.411 13.078ZM12.026 18.447H11.026C10.9765 18.4477 10.9275 18.4384 10.8817 18.4198C10.8359 18.4012 10.7942 18.3736 10.7593 18.3387C10.7243 18.3037 10.6967 18.2621 10.6781 18.2163C10.6595 18.1705 10.6503 18.1214 10.651 18.072V14.072C10.6501 14.0225 10.6593 13.9734 10.6778 13.9275C10.6964 13.8817 10.724 13.84 10.759 13.805C10.794 13.77 10.8356 13.7424 10.8815 13.7239C10.9274 13.7053 10.9765 13.6962 11.026 13.697H12.4V17.944C12.395 17.978 12.39 18.014 12.388 18.053C12.388 18.071 12.394 18.088 12.393 18.106C12.3868 18.1989 12.3454 18.286 12.2772 18.3494C12.209 18.4128 12.1191 18.4477 12.026 18.447ZM18.626 14.973V14.979C18.626 14.979 18.194 16.668 17.985 17.479C17.8979 17.8277 17.6968 18.1373 17.4136 18.3585C17.1304 18.5798 16.7813 18.7 16.422 18.7C16.372 18.7 16.322 18.7 16.271 18.693C16.287 18.693 16.13 18.669 15.971 18.636C15.793 18.6 15.552 18.55 15.279 18.492C14.803 18.392 14.226 18.268 13.692 18.152C13.692 18.125 13.7 18.099 13.7 18.072V13.7C14.143 13.008 14.626 12.321 15.082 11.611C15.1525 11.4951 15.2044 11.3689 15.236 11.237C15.236 11.237 15.336 10.884 15.436 10.527C15.487 10.349 15.536 10.17 15.576 10.034C15.596 9.96499 15.613 9.90799 15.624 9.86699L15.638 9.81999C15.674 9.71999 15.699 9.70199 15.7 9.70099C15.7063 9.70039 15.7126 9.70039 15.719 9.70099C15.7528 9.70229 15.7864 9.70767 15.819 9.71699C15.9561 9.75052 16.0763 9.83303 16.157 9.94899C16.2912 10.1381 16.3773 10.3571 16.408 10.587C16.4778 11.0247 16.4494 11.4725 16.325 11.898C16.235 12.25 15.961 13.222 15.961 13.222C15.9342 13.3179 15.9465 13.4204 15.9952 13.5072C16.044 13.594 16.1252 13.658 16.221 13.685C16.2535 13.694 16.2871 13.6987 16.321 13.699H17.81C17.9325 13.6966 18.0541 13.7198 18.1673 13.7669C18.2804 13.8141 18.3824 13.8843 18.467 13.973C18.5484 14.0595 18.611 14.1619 18.6509 14.2737C18.6909 14.3856 18.7072 14.5045 18.699 14.623C18.6877 14.7418 18.6642 14.859 18.629 14.973H18.626Z"
        fill="white"></path>
    <path
        d="M4.54298 4.31601L5.91798 8.38701L7.29998 4.28701C7.37198 4.07101 7.42598 3.92201 7.46198 3.83701C7.50169 3.74782 7.56284 3.66984 7.63998 3.61001C7.73811 3.53789 7.85843 3.5025 7.97998 3.51001C8.08269 3.50926 8.18366 3.53658 8.27198 3.58901C8.35844 3.64011 8.43012 3.71282 8.47998 3.80001C8.52884 3.87915 8.55544 3.97001 8.55698 4.06301C8.55616 4.1304 8.54778 4.19749 8.53198 4.26301C8.51481 4.33301 8.49412 4.4021 8.46998 4.47001C8.44498 4.53701 8.41998 4.60701 8.39498 4.67901L6.92498 8.64001C6.87198 8.79201 6.81998 8.94001 6.76698 9.07301C6.71973 9.19933 6.65869 9.32006 6.58498 9.43301C6.51416 9.53804 6.42005 9.6253 6.30998 9.68801C6.17918 9.75249 6.03531 9.78602 5.88948 9.78602C5.74365 9.78602 5.59978 9.75249 5.46898 9.68801C5.35727 9.62557 5.26199 9.53748 5.19098 9.43101C5.1168 9.31731 5.05511 9.19594 5.00698 9.06901C4.95498 8.93301 4.90198 8.79001 4.84998 8.63801L3.39998 4.70001C3.37498 4.62801 3.34998 4.55801 3.32298 4.48901C3.29583 4.41595 3.27378 4.34111 3.25698 4.26501C3.24093 4.19948 3.23188 4.13244 3.22998 4.06501C3.23116 3.99273 3.24681 3.92142 3.27601 3.8553C3.30521 3.78917 3.34736 3.72957 3.39998 3.68001C3.45515 3.62291 3.52161 3.57795 3.59514 3.54799C3.66866 3.51803 3.74762 3.50373 3.82698 3.50601C3.91144 3.49777 3.9966 3.51117 4.07445 3.54493C4.1523 3.5787 4.22028 3.63172 4.27198 3.69901C4.38927 3.89175 4.48041 4.09923 4.54298 4.31601Z"
        fill="white"></path>
    <path
        d="M9.53 9.03701V4.25401C9.5149 4.05268 9.57552 3.85297 9.7 3.69401C9.75524 3.63294 9.82314 3.58465 9.89896 3.55253C9.97478 3.5204 10.0567 3.50521 10.139 3.50801C10.2227 3.5047 10.306 3.51942 10.3835 3.55117C10.461 3.58291 10.5307 3.63095 10.588 3.69201C10.7146 3.85073 10.7761 4.05164 10.76 4.25401V9.03701C10.7759 9.23997 10.7144 9.44143 10.588 9.60101C10.531 9.66254 10.4613 9.71101 10.3838 9.74312C10.3063 9.77522 10.2228 9.79019 10.139 9.78701C10.0566 9.78968 9.97466 9.77433 9.89883 9.74203C9.82301 9.70973 9.75515 9.66126 9.7 9.60001C9.57463 9.44036 9.51394 9.23937 9.53 9.03701Z"
        fill="white"></path>
    <path
        d="M14.4919 7.31901H13.3649V9.03701C13.3799 9.23897 13.3177 9.4391 13.1909 9.59701C13.136 9.6587 13.0682 9.70766 12.9924 9.74048C12.9166 9.77329 12.8345 9.78918 12.7519 9.78701C12.6682 9.79019 12.5848 9.77501 12.5076 9.74253C12.4304 9.71006 12.3612 9.66107 12.3049 9.59901C12.1813 9.44234 12.1206 9.2451 12.1349 9.04601V4.36501C12.1246 4.26083 12.1359 4.15564 12.1681 4.05601C12.2002 3.95638 12.2526 3.86447 12.3219 3.78601C12.4903 3.65555 12.7017 3.59341 12.9139 3.61201H14.4919C14.8541 3.60034 15.2162 3.63631 15.5689 3.71901C15.8071 3.78282 16.0275 3.90051 16.2129 4.06301C16.3945 4.22399 16.5356 4.42541 16.6249 4.65101C16.7222 4.90043 16.77 5.16635 16.7659 5.43401C16.7838 5.69644 16.7416 5.95949 16.6425 6.20314C16.5434 6.44678 16.39 6.6646 16.1939 6.84001C15.7 7.19361 15.0978 7.36308 14.4919 7.31901ZM14.1919 4.53501H13.3629V6.39101H14.1919C14.4374 6.39655 14.6824 6.36588 14.9189 6.30001C15.0959 6.25096 15.2521 6.14566 15.3639 6.00001C15.4724 5.84073 15.5261 5.65049 15.5169 5.45801C15.5267 5.21726 15.442 4.98222 15.2809 4.80301C14.9636 4.58374 14.5769 4.4884 14.1939 4.53501H14.1919Z"
        fill="white"></path>
    <path
        d="M8.351 14.071C8.3534 13.6641 8.44992 13.2634 8.633 12.9H2C1.81435 12.9 1.6363 12.8263 1.50503 12.695C1.37375 12.5637 1.3 12.3857 1.3 12.2V2C1.3 1.81435 1.37375 1.6363 1.50503 1.50503C1.6363 1.37375 1.81435 1.3 2 1.3H18C18.1857 1.3 18.3637 1.37375 18.495 1.50503C18.6262 1.6363 18.7 1.81435 18.7 2V10.4C18.7532 10.7733 18.7623 11.1516 18.727 11.527C19.2021 11.672 19.6359 11.9277 19.993 12.273C19.993 12.248 20 12.225 20 12.2V2C20 1.46957 19.7893 0.960859 19.4142 0.585786C19.0391 0.210714 18.5304 0 18 0L2 0C1.46957 0 0.960859 0.210714 0.585786 0.585786C0.210714 0.960859 0 1.46957 0 2L0 12.2C0 12.7304 0.210714 13.2391 0.585786 13.6142C0.960859 13.9893 1.46957 14.2 2 14.2H8.351V14.071Z"
        fill="white"></path>
</svg>