<svg width="15" height="15" xmlns="http://www.w3.org/2000/svg" viewBox="0 0 20 20" fill="none">
    <path
        d="M13.125 14.376C12.9592 14.376 12.8003 14.4419 12.6831 14.5591C12.5658 14.6763 12.5 14.8352 12.5 15.001C12.5 15.1668 12.5658 15.3257 12.6831 15.4429C12.8003 15.5602 12.9592 15.626 13.125 15.626H14.375V16.876C14.375 17.0418 14.4408 17.2007 14.5581 17.3179C14.6753 17.4352 14.8342 17.501 15 17.501C15.1658 17.501 15.3247 17.4352 15.4419 17.3179C15.5592 17.2007 15.625 17.0418 15.625 16.876V15.626H16.875C17.0408 15.626 17.1997 15.5602 17.3169 15.4429C17.4342 15.3257 17.5 15.1668 17.5 15.001C17.5 14.8352 17.4342 14.6763 17.3169 14.5591C17.1997 14.4419 17.0408 14.376 16.875 14.376H15.625V13.126C15.625 12.9602 15.5592 12.8013 15.4419 12.6841C15.3247 12.5669 15.1658 12.501 15 12.501C14.8342 12.501 14.6753 12.5669 14.5581 12.6841C14.4408 12.8013 14.375 12.9602 14.375 13.126V14.376H13.125Z"
        fill="white"></path>
    <path fill-rule="evenodd" clip-rule="evenodd"
        d="M10 15.001C10 14.0121 10.2932 13.0454 10.8427 12.2232C11.3921 11.4009 12.173 10.76 13.0866 10.3816C14.0002 10.0032 15.0055 9.90416 15.9755 10.0971C16.9454 10.29 17.8363 10.7662 18.5355 11.4655C19.2348 12.1647 19.711 13.0557 19.9039 14.0256C20.0969 14.9955 19.9978 16.0008 19.6194 16.9144C19.241 17.8281 18.6001 18.609 17.7779 19.1584C16.9556 19.7078 15.9889 20.001 15 20.001C13.6739 20.001 12.4021 19.4742 11.4645 18.5365C10.5268 17.5989 10 16.3271 10 15.001ZM15 18.751C14.2583 18.751 13.5333 18.5311 12.9166 18.119C12.2999 17.707 11.8193 17.1213 11.5355 16.4361C11.2516 15.7508 11.1774 14.9969 11.3221 14.2694C11.4667 13.542 11.8239 12.8738 12.3483 12.3494C12.8728 11.8249 13.541 11.4678 14.2684 11.3231C14.9958 11.1784 15.7498 11.2526 16.4351 11.5365C17.1203 11.8203 17.706 12.3009 18.118 12.9176C18.5301 13.5343 18.75 14.2593 18.75 15.001C18.75 15.9956 18.3549 16.9494 17.6517 17.6527C16.9484 18.3559 15.9946 18.751 15 18.751Z"
        fill="white"></path>
    <path
        d="M14.6 6.055H5.405C5.23261 6.055 5.06728 5.98652 4.94539 5.86462C4.82349 5.74273 4.755 5.5774 4.755 5.405C4.755 5.23261 4.82349 5.06728 4.94539 4.94539C5.06728 4.82349 5.23261 4.755 5.405 4.755H14.6C14.7724 4.755 14.9377 4.82349 15.0596 4.94539C15.1815 5.06728 15.25 5.23261 15.25 5.405C15.25 5.5774 15.1815 5.74273 15.0596 5.86462C14.9377 5.98652 14.7724 6.055 14.6 6.055Z"
        fill="white"></path>
    <path
        d="M12.433 9.839H5.405C5.23261 9.839 5.06728 9.77052 4.94539 9.64862C4.82349 9.52672 4.755 9.36139 4.755 9.189C4.755 9.01661 4.82349 8.85128 4.94539 8.72938C5.06728 8.60748 5.23261 8.539 5.405 8.539H12.433C12.6054 8.539 12.7707 8.60748 12.8926 8.72938C13.0145 8.85128 13.083 9.01661 13.083 9.189C13.083 9.36139 13.0145 9.52672 12.8926 9.64862C12.7707 9.77052 12.6054 9.839 12.433 9.839Z"
        fill="white"></path>
    <path
        d="M9 15.001C9.00129 14.7647 9.01632 14.5286 9.045 14.294L5.624 16.86V14.595C5.624 14.2502 5.48704 13.9196 5.24324 13.6758C4.99944 13.432 4.66878 13.295 4.324 13.295H2.7C2.3287 13.295 1.9726 13.1475 1.71005 12.885C1.4475 12.6224 1.3 12.2663 1.3 11.895V2.70101C1.3 2.3297 1.4475 1.97361 1.71005 1.71106C1.9726 1.44851 2.3287 1.30101 2.7 1.30101H17.3C17.6713 1.30101 18.0274 1.44851 18.2899 1.71106C18.5525 1.97361 18.7 2.3297 18.7 2.70101V10.285C19.2045 10.6801 19.6433 11.1526 20 11.685V2.70101C20 1.98492 19.7155 1.29817 19.2092 0.791819C18.7028 0.285471 18.0161 0.00100708 17.3 0.00100708L2.7 0.00100708C1.98392 0.00100708 1.29716 0.285471 0.790812 0.791819C0.284464 1.29817 0 1.98492 0 2.70101L0 11.89C0 12.6061 0.284464 13.2928 0.790812 13.7992C1.29716 14.3055 1.98392 14.59 2.7 14.59H4.324V18.374C4.324 18.4452 4.33806 18.5157 4.36537 18.5815C4.39268 18.6473 4.43271 18.707 4.48316 18.7573C4.53361 18.8075 4.59349 18.8473 4.65935 18.8744C4.72522 18.9015 4.79579 18.9153 4.867 18.915C4.98337 18.9149 5.09648 18.8766 5.189 18.806L9.074 15.901C9.02682 15.6033 9.00209 15.3024 9 15.001Z"
        fill="white"></path>
</svg>