<svg width="20" height="20" xmlns="http://www.w3.org/2000/svg" viewBox="0 0 68 68" fill="none" style="fill: white;">
    <path
        d="M34 68C52.7777 68 68 52.7777 68 34C68 15.2223 52.7777 0 34 0C15.2223 0 0 15.2223 0 34C0 52.7777 15.2223 68 34 68Z"
        fill="none"></path>
    <path
        d="M42.55 32.1C45.3215 32.1 47.9795 33.201 49.9393 35.1607C51.899 37.1205 53 39.7785 53 42.55C53 45.3215 51.899 47.9795 49.9393 49.9393C47.9795 51.899 45.3215 53 42.55 53C39.7785 53 37.1205 51.899 35.1607 49.9393C33.201 47.9795 32.1 45.3215 32.1 42.55C32.1 39.7785 33.201 37.1205 35.1607 35.1607C37.1205 33.201 39.7785 32.1 42.55 32.1V32.1ZM43.025 15C44.6627 15 46.2333 15.6506 47.3914 16.8086C48.5494 17.9667 49.2 19.5373 49.2 21.175L49.2019 32.1437C48.3138 31.5735 47.3559 31.1201 46.3519 30.7947L46.35 25.45H17.85V43.025C17.85 44.8604 19.3396 46.35 21.175 46.35H30.7966C31.1234 47.3646 31.5794 48.3222 32.1437 49.2019L21.175 49.2C19.5373 49.2 17.9667 48.5494 16.8086 47.3914C15.6506 46.2333 15 44.6627 15 43.025V21.175C15 19.5373 15.6506 17.9667 16.8086 16.8086C17.9667 15.6506 19.5373 15 21.175 15H43.025ZM41.5696 35.9874L41.4936 36.1736L40.4372 39.5689H37.0115C36.0007 39.5689 35.5447 40.8381 36.2192 41.5373L36.3598 41.6608L39.13 43.7603L38.0717 47.1556C37.7582 48.1626 38.7842 49.0081 39.6316 48.5426L39.7798 48.4476L42.55 46.35L45.3202 48.4476C46.1429 49.0708 47.2316 48.3146 47.0682 47.3304L47.0283 47.1556L45.97 43.7603L48.7402 41.6608C49.5572 41.0414 49.2114 39.7342 48.2709 39.5841L48.0885 39.5689H44.6628L43.6045 36.1736C43.5443 35.9606 43.421 35.7709 43.2508 35.6294C43.0806 35.4879 42.8714 35.4014 42.651 35.3812C42.4306 35.3611 42.2093 35.4082 42.0162 35.5164C41.8231 35.6246 41.6674 35.7889 41.5696 35.9874V35.9874ZM43.025 17.85H21.175C20.2932 17.85 19.4474 18.2003 18.8239 18.8239C18.2003 19.4474 17.85 20.2932 17.85 21.175V22.6H46.35V21.175C46.35 20.2932 45.9997 19.4474 45.3761 18.8239C44.7526 18.2003 43.9068 17.85 43.025 17.85Z"
        fill="white"></path>
</svg>