<svg width="15" height="15" xmlns="http://www.w3.org/2000/svg" viewBox="0 0 20 20" fill="none">
    <path
        d="M13.13 14.375C13.0475 14.3743 12.9657 14.39 12.8893 14.4211C12.8129 14.4522 12.7434 14.4982 12.6848 14.5563C12.6263 14.6144 12.5798 14.6835 12.548 14.7597C12.5163 14.8358 12.5 14.9175 12.5 15C12.5 15.1658 12.5658 15.3247 12.6831 15.4419C12.8003 15.5592 12.9592 15.625 13.125 15.625H14.375V16.875C14.375 17.0408 14.4408 17.1997 14.5581 17.3169C14.6753 17.4342 14.8342 17.5 15 17.5C15.1658 17.5 15.3247 17.4342 15.4419 17.3169C15.5592 17.1997 15.625 17.0408 15.625 16.875V15.625H16.875C17.0408 15.625 17.1997 15.5592 17.3169 15.4419C17.4342 15.3247 17.5 15.1658 17.5 15C17.5 14.8342 17.4342 14.6753 17.3169 14.5581C17.1997 14.4408 17.0408 14.375 16.875 14.375H15.63V13.125C15.63 12.9592 15.5642 12.8003 15.4469 12.6831C15.3297 12.5658 15.1708 12.5 15.005 12.5C14.8392 12.5 14.6803 12.5658 14.5631 12.6831C14.4458 12.8003 14.38 12.9592 14.38 13.125V14.375H13.13Z"
        fill="white"></path>
    <path fill-rule="evenodd" clip-rule="evenodd"
        d="M10 15C10 13.6739 10.5268 12.4021 11.4645 11.4645C12.4021 10.5268 13.6739 10 15 10C16.3261 10 17.5978 10.5268 18.5355 11.4645C19.4732 12.4021 20 13.6739 20 15C20 16.3261 19.4732 17.5979 18.5355 18.5355C17.5978 19.4732 16.3261 20 15 20C13.6739 20 12.4021 19.4732 11.4645 18.5355C10.5268 17.5979 10 16.3261 10 15ZM15 18.75C14.0054 18.75 13.0516 18.3549 12.3483 17.6517C11.6451 16.9484 11.25 15.9946 11.25 15C11.25 14.0054 11.6451 13.0516 12.3483 12.3483C13.0516 11.6451 14.0054 11.25 15 11.25C15.9946 11.25 16.9484 11.6451 17.6516 12.3483C18.3549 13.0516 18.75 14.0054 18.75 15C18.75 15.9946 18.3549 16.9484 17.6516 17.6517C16.9484 18.3549 15.9946 18.75 15 18.75Z"
        fill="white"></path>
    <path
        d="M13.13 14.375C13.0475 14.3743 12.9657 14.39 12.8893 14.4211C12.8129 14.4522 12.7434 14.4982 12.6848 14.5563C12.6263 14.6144 12.5798 14.6835 12.548 14.7597C12.5163 14.8358 12.5 14.9175 12.5 15C12.5 15.1658 12.5658 15.3247 12.6831 15.4419C12.8003 15.5592 12.9592 15.625 13.125 15.625H14.375V16.875C14.375 17.0408 14.4408 17.1997 14.5581 17.3169C14.6753 17.4342 14.8342 17.5 15 17.5C15.1658 17.5 15.3247 17.4342 15.4419 17.3169C15.5592 17.1997 15.625 17.0408 15.625 16.875V15.625H16.875C17.0408 15.625 17.1997 15.5592 17.3169 15.4419C17.4342 15.3247 17.5 15.1658 17.5 15C17.5 14.8342 17.4342 14.6753 17.3169 14.5581C17.1997 14.4408 17.0408 14.375 16.875 14.375H15.63V13.125C15.63 12.9592 15.5642 12.8003 15.4469 12.6831C15.3297 12.5658 15.1708 12.5 15.005 12.5C14.8392 12.5 14.6803 12.5658 14.5631 12.6831C14.4458 12.8003 14.38 12.9592 14.38 13.125V14.375H13.13Z"
        fill="white"></path>
    <path fill-rule="evenodd" clip-rule="evenodd"
        d="M10 15C10 13.6739 10.5268 12.4021 11.4645 11.4645C12.4021 10.5268 13.6739 10 15 10C16.3261 10 17.5978 10.5268 18.5355 11.4645C19.4732 12.4021 20 13.6739 20 15C20 16.3261 19.4732 17.5979 18.5355 18.5355C17.5978 19.4732 16.3261 20 15 20C13.6739 20 12.4021 19.4732 11.4645 18.5355C10.5268 17.5979 10 16.3261 10 15ZM15 18.75C14.0054 18.75 13.0516 18.3549 12.3483 17.6517C11.6451 16.9484 11.25 15.9946 11.25 15C11.25 14.0054 11.6451 13.0516 12.3483 12.3483C13.0516 11.6451 14.0054 11.25 15 11.25C15.9946 11.25 16.9484 11.6451 17.6516 12.3483C18.3549 13.0516 18.75 14.0054 18.75 15C18.75 15.9946 18.3549 16.9484 17.6516 17.6517C16.9484 18.3549 15.9946 18.75 15 18.75Z"
        fill="white"></path>
    <path
        d="M8.86605 16.149C8.55103 16.3485 8.1869 16.4569 7.81405 16.462C7.38341 16.462 6.96361 16.3269 6.61379 16.0758C6.26396 15.8246 6.00174 15.47 5.86405 15.062H8.75505C8.75505 15.043 8.75505 15.025 8.75505 15.005C8.75537 14.5879 8.79724 14.1718 8.88005 13.763H7.85905C7.83242 13.761 7.80568 13.761 7.77905 13.763H1.87905C2.89481 12.0916 3.38468 10.1534 3.28505 8.2C3.28853 8.17615 3.29054 8.1521 3.29105 8.128C3.34805 5.162 5.37405 2.749 7.82105 2.749C10.2681 2.749 12.281 5.162 12.337 8.127C12.3372 8.15108 12.3389 8.17513 12.342 8.199C12.3282 8.58323 12.3379 8.96795 12.371 9.351C12.7832 9.15456 13.2158 9.00432 13.661 8.903C13.654 8.654 13.6291 8.403 13.6451 8.156C13.6489 8.09862 13.6442 8.04099 13.6311 7.985C13.5181 4.569 11.312 1.885 8.45605 1.523V0.650001C8.45631 0.564652 8.43971 0.480092 8.4072 0.401176C8.37469 0.322261 8.32691 0.250545 8.26661 0.190148C8.20631 0.12975 8.13466 0.0818608 8.0558 0.0492297C7.97693 0.0165986 7.8924 -0.000131342 7.80705 7.76448e-07C7.72179 -0.000130907 7.63733 0.0165661 7.55853 0.0491348C7.47973 0.0817035 7.40814 0.129503 7.34784 0.189795C7.28755 0.250086 7.23975 0.321684 7.20719 0.400484C7.17462 0.479283 7.15792 0.563736 7.15805 0.649001V1.522C4.31705 1.888 2.11305 4.565 1.99605 7.976C1.98285 8.03503 1.97813 8.09564 1.98205 8.156C2.10042 10.0468 1.57911 11.9224 0.50205 13.481L0.116048 14.037C0.0484467 14.1343 0.00879391 14.2484 0.00138993 14.3666C-0.00601404 14.4849 0.0191136 14.603 0.0740485 14.708C0.128775 14.8132 0.211333 14.9014 0.312723 14.9629C0.414112 15.0245 0.530445 15.057 0.649049 15.057H4.53005C4.68202 15.8175 5.09254 16.502 5.6919 16.9942C6.29126 17.4863 7.0425 17.7559 7.81805 17.757C8.31263 17.7541 8.80027 17.6403 9.24505 17.424C9.07336 17.0138 8.94629 16.5864 8.86605 16.149Z"
        fill="white"></path>
</svg>