<svg width="15" height="15" xmlns="http://www.w3.org/2000/svg" viewBox="0 0 20 20" fill="none">
    <path
        d="M13.125 14.375C12.9592 14.375 12.8003 14.4408 12.6831 14.5581C12.5658 14.6753 12.5 14.8342 12.5 15C12.5 15.1658 12.5658 15.3247 12.6831 15.4419C12.8003 15.5592 12.9592 15.625 13.125 15.625H14.375V16.875C14.375 17.0408 14.4408 17.1997 14.5581 17.3169C14.6753 17.4342 14.8342 17.5 15 17.5C15.1658 17.5 15.3247 17.4342 15.4419 17.3169C15.5592 17.1997 15.625 17.0408 15.625 16.875V15.625H16.875C17.0408 15.625 17.1997 15.5592 17.3169 15.4419C17.4342 15.3247 17.5 15.1658 17.5 15C17.5 14.8342 17.4342 14.6753 17.3169 14.5581C17.1997 14.4408 17.0408 14.375 16.875 14.375H15.625V13.125C15.625 12.9592 15.5592 12.8003 15.4419 12.6831C15.3247 12.5658 15.1658 12.5 15 12.5C14.8342 12.5 14.6753 12.5658 14.5581 12.6831C14.4408 12.8003 14.375 12.9592 14.375 13.125V14.375H13.125Z"
        fill="white"></path>
    <path fill-rule="evenodd" clip-rule="evenodd"
        d="M10 15C10 14.0111 10.2932 13.0444 10.8427 12.2222C11.3921 11.3999 12.173 10.759 13.0866 10.3806C14.0002 10.0022 15.0055 9.90315 15.9755 10.0961C16.9454 10.289 17.8363 10.7652 18.5355 11.4645C19.2348 12.1637 19.711 13.0546 19.9039 14.0246C20.0969 14.9945 19.9978 15.9998 19.6194 16.9134C19.241 17.8271 18.6001 18.6079 17.7779 19.1574C16.9556 19.7068 15.9889 20 15 20C13.6739 20 12.4021 19.4732 11.4645 18.5355C10.5268 17.5979 10 16.3261 10 15ZM15 18.75C14.2583 18.75 13.5333 18.5301 12.9166 18.118C12.2999 17.706 11.8193 17.1203 11.5355 16.4351C11.2516 15.7498 11.1774 14.9958 11.3221 14.2684C11.4667 13.541 11.8239 12.8728 12.3483 12.3484C12.8728 11.8239 13.541 11.4668 14.2684 11.3221C14.9958 11.1774 15.7498 11.2516 16.4351 11.5355C17.1203 11.8193 17.706 12.2999 18.118 12.9166C18.5301 13.5333 18.75 14.2583 18.75 15C18.75 15.9946 18.3549 16.9484 17.6517 17.6517C16.9484 18.3549 15.9946 18.75 15 18.75Z"
        fill="white"></path>
    <path
        d="M9.964 18.241C8.926 18.035 6.813 17.67 6.647 17.641V17.6L6.654 17.426V17.417L6.665 17.354V10.014C6.66125 9.90998 6.64989 9.80637 6.631 9.704V9.034C7.77569 7.7463 8.85248 6.3998 9.857 5C9.99381 4.77633 10.095 4.53276 10.157 4.278C10.157 4.278 10.351 3.595 10.548 2.906C10.648 2.561 10.748 2.215 10.819 1.952L10.938 1.539C11.011 1.325 11.071 1.304 11.091 1.304H11.125C11.1816 1.30503 11.2376 1.31656 11.29 1.338C11.5551 1.40312 11.7875 1.56233 11.944 1.786C12.2026 2.15233 12.369 2.57564 12.429 3.02C12.5633 3.86618 12.5084 4.73163 12.268 5.554C12.094 6.234 11.568 8.112 11.568 8.112C11.5375 8.21994 11.5325 8.3335 11.5533 8.44372C11.5742 8.55394 11.6204 8.65779 11.6883 8.7471C11.7561 8.83641 11.8439 8.90873 11.9445 8.95834C12.0451 9.00796 12.1558 9.03351 12.268 9.033H14.458C14.641 9.016 14.826 9.005 15.013 9.005C16.0639 9.0051 17.096 9.28391 18.004 9.813C17.8747 9.38742 17.6496 8.99711 17.346 8.672C17.0616 8.3728 16.7188 8.13517 16.3388 7.97382C15.9588 7.81248 15.5498 7.73085 15.137 7.734H13.013C13.184 7.122 13.413 6.285 13.52 5.876C13.8063 4.87311 13.8681 3.81948 13.701 2.79C13.6048 2.13967 13.353 1.52218 12.967 0.99C12.6483 0.555624 12.1941 0.239683 11.676 0.092C11.4971 0.0318912 11.3097 0.000830962 11.121 0L11.049 0H10.991C10.6863 0.0275057 10.3981 0.15034 10.1672 0.351045C9.93635 0.551751 9.77461 0.820116 9.705 1.118L9.695 1.147L9.687 1.177L9.568 1.589L9.397 2.189L9.297 2.547C9.097 3.247 8.897 3.94 8.897 3.941C8.87045 4.05855 8.82877 4.17217 8.773 4.279L8.764 4.3C7.79499 5.64373 6.75797 6.93708 5.657 8.175L5.65 8.183C5.21921 7.88963 4.7102 7.7325 4.189 7.732H2.172C1.61646 7.71254 1.07587 7.91414 0.668725 8.2926C0.26158 8.67107 0.0211004 9.19552 0 9.751V17.483C0.0198163 18.0388 0.259316 18.5641 0.66595 18.9435C1.07258 19.323 1.61314 19.5256 2.169 19.507H4.495C4.78872 19.5107 5.08019 19.4555 5.35224 19.3447C5.62429 19.2339 5.8714 19.0698 6.079 18.862L6.41 18.919C6.436 18.919 9.084 19.38 9.969 19.567L10.727 19.725L11.304 19.845L11.356 19.856C11.417 19.869 11.481 19.879 11.543 19.892C10.9165 19.4471 10.3806 18.8867 9.964 18.241ZM5.331 17.611C5.28326 17.7927 5.17364 17.952 5.02104 18.0615C4.86843 18.1711 4.6824 18.2239 4.495 18.211H2.169C1.95779 18.2283 1.74822 18.1621 1.58535 18.0265C1.42247 17.8909 1.3193 17.6968 1.298 17.486V9.751C1.31929 9.5405 1.4224 9.34678 1.58512 9.21155C1.74784 9.07632 1.95716 9.01041 2.168 9.028H4.186C4.44517 9.01299 4.70145 9.08888 4.91065 9.24259C5.11986 9.3963 5.26887 9.61819 5.332 9.87L5.331 17.611Z"
        fill="white"></path>
</svg>