<svg width="15" height="15" xmlns="http://www.w3.org/2000/svg" viewBox="0 0 20 20" fill="none">
    <path
        d="M19.411 13.078C19.2053 12.8608 18.9571 12.6882 18.6818 12.5711C18.4065 12.4539 18.1101 12.3946 17.811 12.397H17.539C17.558 12.328 17.574 12.268 17.586 12.219C17.7563 11.6126 17.7904 10.9761 17.686 10.355C17.6186 9.92049 17.4471 9.50876 17.186 9.15499C16.9265 8.80776 16.5553 8.56055 16.135 8.45499C15.999 8.41981 15.8593 8.40134 15.719 8.39999H15.7C15.6525 8.40125 15.6051 8.40492 15.558 8.41099C15.3463 8.43457 15.1437 8.50977 14.968 8.62999C14.932 8.65499 14.897 8.68199 14.868 8.70999C14.6625 8.88961 14.5088 9.12095 14.423 9.37999C14.414 9.40499 14.406 9.42999 14.398 9.45599L14.383 9.50899L14.335 9.67699L14.244 9.99499L14.194 10.172L13.994 10.89C13.994 10.904 13.986 10.921 13.98 10.939C13.764 11.276 13.542 11.606 13.321 11.933C13.191 12.128 13.066 12.32 12.938 12.514C12.769 12.4374 12.5854 12.3985 12.4 12.4H11.026C10.5818 12.4003 10.1559 12.5768 9.84184 12.8909C9.52777 13.2049 9.35122 13.6308 9.35095 14.075V18.075C9.35148 18.5191 9.52812 18.9448 9.84213 19.2588C10.1561 19.5728 10.5819 19.7495 11.026 19.75H12.026C12.44 19.7484 12.8386 19.5926 13.144 19.313C13.228 19.3602 13.3173 19.3974 13.41 19.424C13.949 19.54 14.531 19.666 15.01 19.767C15.288 19.826 15.532 19.877 15.71 19.913C15.804 19.932 15.895 19.948 15.961 19.96C16.0088 19.9712 16.0572 19.9799 16.106 19.986H16.144C16.235 19.995 16.326 19.999 16.416 19.999C17.0638 19.997 17.6926 19.7798 18.2035 19.3816C18.7145 18.9834 19.0787 18.4267 19.239 17.799C19.449 16.99 19.881 15.299 19.881 15.299C19.9398 15.1003 19.9767 14.8957 19.991 14.689C20.0093 14.3951 19.9673 14.1006 19.8676 13.8235C19.7678 13.5465 19.6124 13.2927 19.411 13.078ZM12.026 18.447H11.026C10.9765 18.4477 10.9275 18.4384 10.8817 18.4198C10.8359 18.4012 10.7942 18.3736 10.7593 18.3387C10.7243 18.3037 10.6967 18.2621 10.6781 18.2163C10.6595 18.1705 10.6503 18.1214 10.651 18.072V14.072C10.6501 14.0225 10.6593 13.9734 10.6778 13.9275C10.6964 13.8817 10.724 13.84 10.759 13.805C10.794 13.77 10.8356 13.7424 10.8815 13.7239C10.9274 13.7053 10.9765 13.6962 11.026 13.697H12.4V17.944C12.395 17.978 12.39 18.014 12.388 18.053C12.388 18.071 12.394 18.088 12.393 18.106C12.3868 18.1989 12.3454 18.286 12.2772 18.3494C12.209 18.4128 12.1191 18.4477 12.026 18.447ZM18.626 14.973V14.979C18.626 14.979 18.194 16.668 17.985 17.479C17.8979 17.8277 17.6968 18.1373 17.4136 18.3585C17.1304 18.5798 16.7813 18.7 16.422 18.7C16.372 18.7 16.322 18.7 16.271 18.693C16.287 18.693 16.13 18.669 15.971 18.636C15.793 18.6 15.552 18.55 15.279 18.492C14.803 18.392 14.226 18.268 13.692 18.152C13.692 18.125 13.7 18.099 13.7 18.072V13.7C14.143 13.008 14.626 12.321 15.082 11.611C15.1525 11.4951 15.2044 11.3689 15.236 11.237C15.236 11.237 15.336 10.884 15.436 10.527C15.487 10.349 15.536 10.17 15.576 10.034C15.596 9.96499 15.613 9.90799 15.624 9.86699L15.638 9.81999C15.674 9.71999 15.699 9.70199 15.7 9.70099C15.7063 9.70039 15.7126 9.70039 15.719 9.70099C15.7528 9.70229 15.7864 9.70767 15.819 9.71699C15.9561 9.75052 16.0763 9.83303 16.157 9.94899C16.2912 10.1381 16.3773 10.3571 16.408 10.587C16.4778 11.0247 16.4494 11.4725 16.325 11.898C16.235 12.25 15.961 13.222 15.961 13.222C15.9342 13.3179 15.9465 13.4204 15.9952 13.5072C16.044 13.594 16.1252 13.658 16.221 13.685C16.2535 13.694 16.2871 13.6987 16.321 13.699H17.81C17.9325 13.6966 18.0541 13.7198 18.1673 13.7669C18.2804 13.8141 18.3824 13.8843 18.467 13.973C18.5484 14.0595 18.611 14.1619 18.6509 14.2737C18.6909 14.3856 18.7072 14.5045 18.699 14.623C18.6877 14.7418 18.6642 14.859 18.629 14.973H18.626Z"
        fill="white"></path>
    <path
        d="M10.709 0H2C1.46957 0 0.960859 0.210714 0.585786 0.585786C0.210714 0.960859 0 1.46957 0 2L0 18C0 18.5304 0.210714 19.0391 0.585786 19.4142C0.960859 19.7893 1.46957 20 2 20H9.182C8.81318 19.6474 8.55353 19.1961 8.434 18.7H2C1.81435 18.7 1.6363 18.6262 1.50503 18.495C1.37375 18.3637 1.3 18.1857 1.3 18V2C1.3 1.81435 1.37375 1.6363 1.50503 1.50503C1.6363 1.37375 1.81435 1.3 2 1.3H8.74V3.531C8.74026 3.96711 8.91369 4.38526 9.22216 4.69354C9.53063 5.00183 9.94889 5.175 10.385 5.175H12.616V11.175C12.754 10.968 12.952 10.67 13.051 10.519L13.473 9.052C13.576 8.77242 13.7258 8.51239 13.916 8.283V3.207C13.916 2.78585 13.833 2.36883 13.6719 1.97973C13.5107 1.59064 13.2745 1.23711 12.9767 0.939309C12.6789 0.641511 12.3254 0.405285 11.9363 0.244118C11.5472 0.0829515 11.1301 0 10.709 0V0ZM11.7 3.875H10.972C10.7259 3.875 10.4898 3.77723 10.3158 3.6032C10.1418 3.42916 10.044 3.19312 10.044 2.947V1.3H10.691C11.2026 1.3 11.6933 1.50323 12.055 1.86499C12.4168 2.22675 12.62 2.7174 12.62 3.229V3.875H11.7Z"
        fill="white"></path>
    <path
        d="M7.00801 3.42001H3.41501C3.05603 3.42001 2.76501 3.71103 2.76501 4.07001C2.76501 4.429 3.05603 4.72001 3.41501 4.72001H7.00801C7.367 4.72001 7.65801 4.429 7.65801 4.07001C7.65801 3.71103 7.367 3.42001 7.00801 3.42001Z"
        fill="white"></path>
    <path
        d="M10.876 6.42001H3.41501C3.05603 6.42001 2.76501 6.71103 2.76501 7.07001C2.76501 7.429 3.05603 7.72001 3.41501 7.72001H10.876C11.235 7.72001 11.526 7.429 11.526 7.07001C11.526 6.71103 11.235 6.42001 10.876 6.42001Z"
        fill="white"></path>
    <path
        d="M10.876 9.42099H3.41501C3.05603 9.42099 2.76501 9.712 2.76501 10.071C2.76501 10.43 3.05603 10.721 3.41501 10.721H10.876C11.235 10.721 11.526 10.43 11.526 10.071C11.526 9.712 11.235 9.42099 10.876 9.42099Z"
        fill="white"></path>
    <path
        d="M7.00801 12.421H3.41501C3.05603 12.421 2.76501 12.712 2.76501 13.071C2.76501 13.43 3.05603 13.721 3.41501 13.721H7.00801C7.367 13.721 7.65801 13.43 7.65801 13.071C7.65801 12.712 7.367 12.421 7.00801 12.421Z"
        fill="white"></path>
    <path
        d="M7.00801 15.422H3.41501C3.05603 15.422 2.76501 15.713 2.76501 16.072C2.76501 16.431 3.05603 16.722 3.41501 16.722H7.00801C7.367 16.722 7.65801 16.431 7.65801 16.072C7.65801 15.713 7.367 15.422 7.00801 15.422Z"
        fill="white"></path>
</svg>