<svg width="20" height="20" xmlns="http://www.w3.org/2000/svg" viewBox="0 0 68 68" fill="none" style="fill: white;">
    <path
        d="M34 68C52.7777 68 68 52.7777 68 34C68 15.2223 52.7777 0 34 0C15.2223 0 0 15.2223 0 34C0 52.7777 15.2223 68 34 68Z"
        fill="none"></path>
    <path
        d="M43.85 43.46C43.56 43.46 43.28 43.58 43.07 43.78C42.86 43.99 42.75 44.27 42.75 44.56C42.75 44.85 42.87 45.13 43.07 45.34C43.28 45.55 43.56 45.66 43.85 45.66H46.05V47.86C46.05 48.15 46.17 48.43 46.37 48.64C46.58 48.85 46.86 48.96 47.15 48.96C47.44 48.96 47.72 48.84 47.93 48.64C48.14 48.43 48.25 48.15 48.25 47.86V45.66H50.45C50.74 45.66 51.02 45.54 51.23 45.34C51.44 45.13 51.55 44.85 51.55 44.56C51.55 44.27 51.43 43.99 51.23 43.78C51.02 43.57 50.74 43.46 50.45 43.46H48.25V41.26C48.25 40.97 48.13 40.69 47.93 40.48C47.72 40.27 47.44 40.16 47.15 40.16C46.86 40.16 46.58 40.28 46.37 40.48C46.16 40.69 46.05 40.97 46.05 41.26V43.46H43.85Z"
        fill="white"></path>
    <path fill-rule="evenodd" clip-rule="evenodd"
        d="M38.35 44.56C38.35 42.23 39.28 39.99 40.93 38.34C42.58 36.69 44.82 35.76 47.15 35.76C49.48 35.76 51.72 36.69 53.37 38.34C55.02 39.99 55.95 42.23 55.95 44.56C55.95 46.89 55.02 49.13 53.37 50.78C51.72 52.43 49.48 53.36 47.15 53.36C44.82 53.36 42.58 52.43 40.93 50.78C39.28 49.14 38.35 46.9 38.35 44.56ZM47.15 51.16C45.4 51.16 43.72 50.46 42.48 49.23C41.24 47.99 40.55 46.31 40.55 44.56C40.55 42.81 41.25 41.13 42.48 39.89C43.72 38.65 45.4 37.96 47.15 37.96C48.9 37.96 50.58 38.66 51.82 39.89C53.06 41.13 53.75 42.81 53.75 44.56C53.75 46.31 53.05 47.99 51.82 49.23C50.58 50.47 48.9 51.16 47.15 51.16Z"
        fill="white"></path>
    <path
        d="M33.65 18C24.26 18 16.25 23.84 13 32.08C16.25 40.32 24.26 46.16 33.65 46.16C34.33 46.16 35 46.16 35.68 46.07C35.58 45.48 35.53 44.88 35.53 44.29C35.53 43.61 35.61 42.94 35.72 42.26C35.04 42.34 34.35 42.41 33.66 42.41C26.6 42.41 20.2 38.39 17.1 32.09C18.62 28.99 20.97 26.38 23.9 24.56C26.83 22.73 30.21 21.77 33.66 21.77C37.11 21.77 40.49 22.74 43.42 24.56C46.35 26.39 48.7 29 50.22 32.09C49.99 32.54 49.73 32.93 49.49 33.37C50.73 33.67 51.91 34.18 52.98 34.91C53.49 33.97 53.94 33.03 54.31 32.09C51.05 23.84 43.03 18 33.65 18Z"
        fill="white"></path>
    <path
        d="M33.65 26.45C32.16 26.45 30.72 27.04 29.67 28.1C28.61 29.16 28.02 30.59 28.02 32.08C28.02 33.57 28.61 35.01 29.67 36.06C30.73 37.12 32.16 37.71 33.65 37.71C35.14 37.71 36.58 37.12 37.63 36.06C38.68 35 39.28 33.57 39.28 32.08C39.28 30.59 38.69 29.15 37.63 28.1C36.57 27.04 35.14 26.45 33.65 26.45Z"
        fill="white"></path>
</svg>